{"glyphs":{"0":{"ha":1649,"x_min":125,"x_max":1524,"o":"m 825 963 q 1524 474 1524 963 q 825 -15 1524 -15 q 125 474 125 -15 q 825 963 125 963 m 1283 156 q 1362 204 1283 156 q 1442 474 1442 253 q 1283 792 1442 694 q 825 889 1124 889 q 366 792 525 889 q 207 474 207 694 q 366 156 207 253 q 825 58 525 58 q 1283 156 1124 58 z "},"1":{"ha":799,"x_min":100,"x_max":546,"o":"m 546 0 l 464 0 l 464 763 q 468 864 464 781 l 100 722 l 100 799 l 468 947 l 546 947 l 546 0 z "},"2":{"ha":1439,"x_min":100,"x_max":1313,"o":"m 1229 663 q 1098 841 1229 793 q 693 889 967 889 q 124 838 429 889 l 117 908 q 686 963 413 963 q 1158 897 1006 963 q 1311 671 1311 832 q 1302 601 1311 633 q 1279 545 1293 569 q 1238 497 1265 521 q 1186 457 1210 474 q 1119 420 1163 440 q 1045 387 1076 400 q 958 351 1014 374 l 260 63 q 603 74 460 74 l 1313 74 l 1313 0 l 100 0 l 100 68 l 986 431 q 1176 535 1122 489 q 1229 663 1229 582 z "},"3":{"ha":1443,"x_min":113,"x_max":1317,"o":"m 1317 238 q 1260 90 1317 143 q 1067 10 1203 36 q 693 -15 932 -15 q 401 -2 572 -15 q 113 35 229 11 l 119 106 q 694 58 435 58 q 1115 97 996 58 q 1235 247 1235 135 q 1149 407 1235 365 q 847 449 1063 449 l 304 449 l 304 511 l 843 511 q 1146 546 1060 511 q 1232 681 1232 581 q 1113 847 1232 804 q 694 889 994 889 q 149 847 426 889 l 142 919 q 418 951 254 939 q 688 963 582 963 q 1176 901 1039 963 q 1314 688 1314 840 q 1262 546 1314 594 q 1101 478 1210 497 q 1317 238 1317 436 z "},"4":{"ha":1582,"x_min":68,"x_max":1469,"o":"m 1469 322 l 1469 254 l 1214 254 l 1214 0 l 1133 0 l 1133 254 l 68 254 l 68 321 l 1133 942 l 1214 942 l 1214 322 l 1469 322 m 1133 868 l 383 425 l 186 317 q 399 322 246 319 l 1133 322 l 1133 868 z "},"5":{"ha":1443,"x_min":111,"x_max":1315,"o":"m 1249 878 l 290 878 l 225 547 l 749 546 q 1183 487 1050 544 q 1315 271 1315 429 q 1290 147 1315 196 q 1199 59 1265 97 q 1010 3 1133 21 q 699 -15 888 -15 q 111 32 368 -15 l 119 103 q 706 54 399 54 q 1035 79 918 54 q 1194 149 1153 104 q 1236 271 1236 193 q 1124 435 1236 392 q 742 479 1013 479 l 151 482 l 138 494 l 228 947 l 1249 947 l 1249 878 z "},"6":{"ha":1538,"x_min":119,"x_max":1413,"o":"m 1413 265 q 1390 156 1413 203 q 1322 78 1367 108 q 1224 29 1276 49 q 1095 0 1171 10 q 955 -12 1019 -10 q 801 -15 890 -15 q 279 105 439 -15 q 119 483 119 225 q 158 683 119 597 q 259 821 196 768 q 416 906 322 874 q 607 951 510 939 q 824 963 704 963 q 1368 892 1107 963 l 1351 818 q 824 889 1078 889 q 616 878 707 889 q 445 839 525 867 q 313 766 365 811 q 230 649 260 721 q 200 482 200 578 l 200 458 q 810 556 485 556 q 933 554 883 556 q 1051 547 982 553 q 1165 529 1119 540 q 1262 497 1211 518 q 1342 445 1313 475 q 1392 369 1372 415 q 1413 265 1413 324 m 808 492 q 204 397 514 492 q 363 138 226 219 q 801 56 500 56 q 1034 65 942 56 q 1197 97 1126 74 q 1299 164 1267 121 q 1331 272 1331 207 q 1210 446 1331 400 q 808 492 1090 492 z "},"7":{"ha":1350,"x_min":44,"x_max":1290,"o":"m 510 0 l 401 0 l 1056 736 q 1196 878 1132 819 q 956 875 1043 875 l 44 875 l 44 947 l 1290 947 l 1290 879 l 510 0 z "},"8":{"ha":1576,"x_min":142,"x_max":1435,"o":"m 492 946 q 553 954 492 946 q 789 963 614 963 q 1086 946 964 963 q 1279 897 1208 929 q 1381 822 1350 865 q 1413 718 1413 778 q 1136 490 1413 540 q 1365 413 1296 468 q 1435 251 1435 358 q 1375 100 1435 157 q 1174 14 1315 43 q 789 -15 1032 -15 q 403 14 546 -15 q 201 100 261 43 q 142 251 142 157 q 211 413 142 358 q 443 490 281 467 q 164 718 164 538 q 195 822 164 778 q 298 897 226 865 q 492 946 369 929 m 1206 848 q 1143 870 1206 848 q 789 892 1081 892 q 371 848 497 892 q 244 708 244 804 q 371 565 244 610 q 789 519 497 519 q 1206 565 1079 519 q 1332 708 1332 610 q 1206 848 1332 804 m 351 102 q 417 80 351 102 q 789 58 482 58 q 1226 102 1096 58 q 1356 261 1356 146 q 1230 420 1356 379 q 789 461 1104 461 q 347 420 472 461 q 221 261 221 379 q 351 102 221 146 z "},"9":{"ha":1538,"x_min":119,"x_max":1413,"o":"m 1413 464 q 1374 265 1413 350 q 1273 126 1336 179 q 1116 41 1210 74 q 925 -3 1022 8 q 708 -15 828 -15 q 164 54 439 -15 l 181 129 q 708 58 454 58 q 916 69 825 58 q 1087 108 1007 81 q 1219 181 1167 136 q 1302 298 1272 226 q 1332 465 1332 369 l 1332 489 q 722 392 1047 392 q 599 392 646 392 q 482 399 553 393 q 367 416 411 406 q 270 447 322 426 q 189 498 218 468 q 140 573 160 528 q 119 676 119 618 q 169 824 119 765 q 312 912 219 883 q 502 951 404 940 q 731 963 600 963 q 1253 842 1093 963 q 1413 464 1413 722 m 724 456 q 1328 550 1029 456 q 1169 808 1306 726 q 731 890 1032 890 q 329 840 457 890 q 201 671 201 790 q 320 499 201 543 q 724 456 439 456 z "},"\r":{"ha":0,"x_min":0,"x_max":0,"o":""}," ":{"ha":607,"x_min":0,"x_max":0,"o":""},"!":{"ha":286,"x_min":103,"x_max":183,"o":"m 183 621 l 169 254 l 117 254 l 103 621 l 103 947 l 183 947 l 183 621 m 183 192 l 183 0 l 103 0 l 103 192 l 183 192 z "},"\"":{"ha":542,"x_min":103,"x_max":439,"o":"m 115 718 l 103 892 l 103 1042 l 182 1042 l 182 892 l 169 718 l 115 718 m 372 718 l 361 892 l 361 1042 l 439 1042 l 439 892 l 428 718 l 372 718 z "},"#":{"ha":1539,"x_min":103,"x_max":1436,"o":"m 118 300 l 397 300 l 474 611 l 192 611 l 208 669 l 488 669 l 546 906 l 614 906 l 556 669 l 1082 669 l 1140 906 l 1208 906 l 1150 669 l 1436 669 l 1421 611 l 1136 611 l 1060 300 l 1346 300 l 1331 242 l 1046 242 l 986 0 l 918 0 l 978 242 l 451 242 l 392 0 l 324 0 l 383 242 l 103 242 l 118 300 m 465 300 l 992 300 l 1068 611 l 542 611 l 465 300 z "},"$":{"ha":1458,"x_min":113,"x_max":1318,"o":"m 749 1083 l 749 960 q 1278 901 1047 950 l 1265 833 q 749 890 1035 878 l 749 518 l 978 493 q 1092 478 1047 486 q 1183 452 1136 469 q 1257 409 1231 435 q 1301 340 1283 383 q 1318 238 1318 297 q 1268 90 1318 143 q 1094 11 1218 38 q 749 -15 971 -15 l 749 -150 l 682 -150 l 682 -14 q 128 46 371 -7 l 139 117 q 682 56 383 68 l 682 454 l 449 479 q 194 545 276 497 q 113 713 113 593 q 234 906 113 850 q 668 961 356 961 l 682 961 l 682 1083 l 749 1083 m 444 550 l 682 525 l 682 892 l 657 892 q 365 873 465 892 q 228 818 264 854 q 192 714 192 782 q 250 597 192 629 q 444 550 308 565 m 1001 421 l 749 447 l 749 54 l 758 54 q 1063 74 958 54 q 1203 132 1168 94 q 1239 239 1239 169 q 1186 370 1239 336 q 1001 421 1133 404 z "},"%":{"ha":1757,"x_min":78,"x_max":1672,"o":"m 397 515 q 238 515 397 515 q 78 739 78 515 q 397 963 78 963 q 717 739 717 963 q 397 515 717 515 m 419 0 l 332 0 l 1333 947 l 1421 947 l 419 0 m 594 611 q 625 631 594 611 q 656 739 656 651 q 594 866 656 826 q 397 906 533 906 q 201 866 263 906 q 140 739 140 826 q 201 611 140 651 q 397 571 263 571 q 594 611 533 571 m 1353 -12 q 1193 -12 1353 -12 q 1033 211 1033 -12 q 1353 435 1033 435 q 1672 211 1672 435 q 1353 -12 1672 -12 m 1550 84 q 1581 104 1550 84 q 1611 211 1611 124 q 1550 339 1611 299 q 1353 379 1489 379 q 1157 339 1218 379 q 1096 211 1096 299 q 1157 84 1096 124 q 1353 44 1218 44 q 1550 84 1489 44 z "},"&":{"ha":1639,"x_min":121,"x_max":1574,"o":"m 1574 451 l 1361 451 l 1361 60 q 722 -14 1033 -14 q 253 46 385 -14 q 121 251 121 106 q 181 406 121 349 q 372 482 240 463 q 153 710 153 521 q 278 900 153 840 q 686 960 403 960 q 1268 910 978 960 l 1256 839 q 688 888 967 888 q 497 881 572 888 q 356 855 421 874 q 261 798 292 836 q 231 701 231 760 q 321 553 231 593 q 622 514 411 514 l 1574 514 l 1574 451 m 200 260 q 315 99 200 140 q 728 57 431 57 q 1286 117 1014 57 l 1286 451 l 622 451 q 292 408 385 451 q 200 260 200 365 z "},"'":{"ha":285,"x_min":103,"x_max":182,"o":"m 115 718 l 103 892 l 103 1042 l 182 1042 l 182 892 l 169 718 l 115 718 z "},"(":{"ha":454,"x_min":100,"x_max":404,"o":"m 356 1071 l 404 1040 q 178 403 178 736 q 404 -233 178 71 l 356 -264 q 100 403 100 35 q 356 1071 100 769 z "},")":{"ha":454,"x_min":50,"x_max":354,"o":"m 276 403 q 50 1040 276 736 l 99 1071 q 354 403 354 769 q 99 -264 354 35 l 50 -233 q 276 403 276 71 z "},"*":{"ha":865,"x_min":100,"x_max":767,"o":"m 285 554 l 401 692 l 225 736 l 100 778 l 119 839 l 246 797 l 414 729 l 401 911 l 401 1043 l 465 1043 l 465 911 l 451 731 l 621 797 l 746 839 l 767 778 l 640 736 l 465 693 l 582 554 l 658 447 l 607 408 l 528 515 l 433 669 l 336 515 l 260 408 l 207 447 l 285 554 z "},"+":{"ha":1032,"x_min":106,"x_max":926,"o":"m 481 144 l 481 378 l 106 378 l 106 444 l 481 444 l 481 679 l 550 679 l 550 444 l 926 444 l 926 378 l 550 378 l 550 144 l 481 144 z "},",":{"ha":286,"x_min":86,"x_max":183,"o":"m 86 -94 l 94 -51 q 117 -56 106 -56 q 136 -37 136 -56 l 136 0 l 103 0 l 103 192 l 183 192 l 183 -44 q 122 -101 183 -101 q 86 -94 103 -101 z "},"-":{"ha":724,"x_min":78,"x_max":646,"o":"m 646 325 l 78 325 l 78 392 l 646 392 l 646 325 z "},".":{"ha":286,"x_min":103,"x_max":183,"o":"m 183 192 l 183 0 l 103 0 l 103 192 l 183 192 z "},"/":{"ha":828,"x_min":22,"x_max":806,"o":"m 806 968 l 99 -229 l 22 -229 l 731 968 l 806 968 z "},":":{"ha":289,"x_min":104,"x_max":185,"o":"m 185 686 l 185 494 l 104 494 l 104 686 l 185 686 m 185 192 l 185 0 l 104 0 l 104 192 l 185 192 z "},";":{"ha":289,"x_min":88,"x_max":185,"o":"m 185 686 l 185 494 l 104 494 l 104 686 l 185 686 m 88 -94 l 96 -51 q 119 -56 106 -56 q 139 -37 139 -56 l 139 0 l 104 0 l 104 192 l 185 192 l 185 -44 q 124 -101 185 -101 q 88 -94 104 -101 z "},"<":{"ha":1026,"x_min":103,"x_max":924,"o":"m 924 140 l 103 382 l 103 465 l 924 707 l 924 636 l 193 424 l 924 211 l 924 140 z "},"=":{"ha":1031,"x_min":103,"x_max":928,"o":"m 928 503 l 103 503 l 103 569 l 928 569 l 928 503 m 928 253 l 103 253 l 103 319 l 928 319 l 928 253 z "},">":{"ha":1026,"x_min":103,"x_max":924,"o":"m 103 707 l 924 465 l 924 382 l 103 140 l 103 211 l 833 424 l 103 636 l 103 707 z "},"?":{"ha":1100,"x_min":75,"x_max":1011,"o":"m 567 379 l 353 379 l 353 443 l 553 443 q 844 487 758 443 q 929 651 929 531 q 834 816 929 772 q 519 860 739 860 q 86 826 329 860 l 75 896 q 515 931 324 931 q 895 869 779 931 q 1011 656 1011 808 q 906 442 1011 504 q 567 379 801 379 m 421 189 l 421 0 l 340 0 l 340 189 l 421 189 z "},"@":{"ha":1944,"x_min":90,"x_max":1854,"o":"m 1361 -243 q 879 -301 1135 -301 q 90 303 90 -301 q 319 766 90 614 q 974 918 549 918 q 1254 899 1125 918 q 1495 838 1383 881 q 1685 730 1607 794 q 1809 569 1764 665 q 1854 350 1854 472 q 1785 86 1854 169 q 1578 3 1715 3 q 1326 128 1388 3 q 854 1 1128 1 q 568 72 672 1 q 464 289 464 143 q 583 520 464 446 q 915 594 703 594 q 1372 550 1118 594 l 1372 283 q 1425 113 1372 161 q 1583 65 1478 65 q 1736 129 1686 65 q 1786 349 1786 193 q 1683 638 1786 522 q 1402 804 1581 753 q 971 856 1224 856 q 158 303 158 856 q 334 -103 158 32 q 876 -237 510 -237 q 1346 -179 1136 -237 l 1361 -243 m 1299 272 l 1299 497 q 911 531 1093 531 q 538 289 538 531 q 860 67 538 67 q 1310 175 1122 67 q 1299 272 1299 222 z "},"A":{"ha":1507,"x_min":8,"x_max":1499,"o":"m 1399 0 l 1224 242 l 285 242 l 108 0 l 8 0 l 701 947 l 807 947 l 1499 0 l 1399 0 m 332 307 l 1175 307 l 754 888 l 332 307 z "},"B":{"ha":1457,"x_min":117,"x_max":1369,"o":"m 1044 0 l 117 0 l 117 947 l 1038 947 q 1267 884 1201 947 q 1333 707 1333 821 q 1292 574 1332 631 q 1174 493 1251 517 q 1369 251 1369 457 q 1294 62 1369 124 q 1044 0 1218 0 m 1025 879 l 197 879 l 197 517 l 1047 517 q 1197 562 1139 517 q 1254 697 1254 607 q 1201 835 1254 792 q 1025 879 1147 879 m 1056 451 l 197 451 l 197 65 l 1036 65 q 1232 109 1174 65 q 1290 258 1290 153 q 1231 406 1290 361 q 1056 451 1172 451 z "},"C":{"ha":1453,"x_min":89,"x_max":1378,"o":"m 300 788 q 235 738 300 788 q 171 474 171 688 q 299 160 171 260 q 733 60 428 60 q 1361 142 1006 60 l 1378 71 q 732 -14 1054 -14 q 245 103 401 -14 q 89 474 89 221 q 245 844 89 726 q 732 961 401 961 q 1378 876 1044 961 l 1361 804 q 733 888 1013 888 q 300 788 429 888 z "},"D":{"ha":1554,"x_min":117,"x_max":1465,"o":"m 903 0 l 117 0 l 117 947 l 903 947 q 1331 836 1197 947 q 1465 475 1465 725 q 1331 113 1465 225 q 903 0 1197 0 m 199 875 l 199 72 l 899 72 q 1272 167 1161 72 q 1382 475 1382 261 q 1272 783 1382 690 q 899 875 1163 875 l 199 875 z "},"E":{"ha":1417,"x_min":117,"x_max":1315,"o":"m 1315 0 l 117 0 l 117 947 l 1315 947 l 1315 878 l 199 878 l 199 517 l 1288 517 l 1288 454 l 199 454 l 199 69 l 1315 69 l 1315 0 z "},"F":{"ha":1401,"x_min":117,"x_max":1315,"o":"m 199 0 l 117 0 l 117 947 l 1315 947 l 1315 875 l 199 875 l 199 486 l 1288 486 l 1288 417 l 199 417 l 199 0 z "},"G":{"ha":1493,"x_min":89,"x_max":1390,"o":"m 249 103 q 169 162 249 103 q 89 474 89 221 q 249 844 89 726 q 750 961 410 961 q 1390 876 1060 961 l 1374 804 q 744 888 1022 888 q 303 787 435 888 q 171 474 171 686 q 302 160 171 260 q 744 60 433 60 q 1307 129 969 60 l 1307 489 l 1390 489 l 1390 71 q 750 -14 1060 -14 q 249 103 410 -14 z "},"H":{"ha":1469,"x_min":117,"x_max":1353,"o":"m 199 0 l 117 0 l 117 947 l 199 947 l 199 533 l 1271 533 l 1271 947 l 1353 947 l 1353 0 l 1271 0 l 1271 460 l 199 460 l 199 0 z "},"I":{"ha":315,"x_min":117,"x_max":199,"o":"m 199 0 l 117 0 l 117 947 l 199 947 l 199 0 z "},"J":{"ha":932,"x_min":1,"x_max":829,"o":"m 301 51 q 651 122 556 51 q 747 371 747 192 l 747 947 l 829 947 l 829 371 q 712 71 829 163 q 303 -21 594 -21 q 1 21 122 -21 l 21 90 q 301 51 147 51 z "},"K":{"ha":1399,"x_min":117,"x_max":1296,"o":"m 199 0 l 117 0 l 117 947 l 199 947 l 199 372 l 497 557 l 1154 947 l 1281 947 l 657 568 l 1296 0 l 1185 0 l 586 526 l 199 293 l 199 0 z "},"L":{"ha":1336,"x_min":117,"x_max":1308,"o":"m 199 72 l 1308 72 l 1308 0 l 117 0 l 117 947 l 199 947 l 199 72 z "},"M":{"ha":1900,"x_min":117,"x_max":1783,"o":"m 199 0 l 117 0 l 117 947 l 218 947 l 951 69 l 1683 947 l 1783 947 l 1783 0 l 1701 0 l 1701 850 l 990 0 l 910 0 l 199 850 l 199 0 z "},"N":{"ha":1504,"x_min":117,"x_max":1388,"o":"m 199 0 l 117 0 l 117 947 l 214 947 l 1306 88 l 1306 947 l 1388 947 l 1388 0 l 1290 0 l 199 863 l 199 0 z "},"O":{"ha":1625,"x_min":89,"x_max":1536,"o":"m 1360 101 q 1272 43 1360 101 q 813 -15 1183 -15 q 265 101 442 -15 q 89 474 89 218 q 265 846 89 729 q 813 963 442 963 q 1360 846 1183 963 q 1536 474 1536 729 q 1360 101 1536 218 m 319 160 q 393 110 319 160 q 813 60 467 60 q 1306 160 1158 60 q 1453 474 1453 260 q 1306 788 1453 688 q 813 888 1158 888 q 319 788 467 888 q 171 474 171 688 q 319 160 171 260 z "},"P":{"ha":1406,"x_min":117,"x_max":1349,"o":"m 117 0 l 117 947 l 1010 947 q 1266 878 1183 947 q 1349 664 1349 808 q 1266 447 1349 517 q 1010 376 1183 376 l 199 376 l 199 0 l 117 0 m 1010 875 l 199 875 l 199 449 l 1010 449 q 1206 498 1146 449 q 1265 661 1265 547 q 1206 825 1265 775 q 1010 875 1146 875 z "},"Q":{"ha":1625,"x_min":89,"x_max":1536,"o":"m 813 -15 q 265 101 442 -15 q 89 474 89 218 q 265 846 89 729 q 813 963 442 963 q 1360 846 1183 963 q 1536 474 1536 729 q 1396 129 1536 246 q 963 -10 1256 13 l 1308 -254 l 1193 -254 l 853 -15 l 813 -15 m 319 160 q 393 110 319 160 q 813 60 467 60 q 1306 160 1158 60 q 1453 474 1453 260 q 1306 788 1453 688 q 813 888 1158 888 q 319 788 467 888 q 171 474 171 688 q 319 160 171 260 z "},"R":{"ha":1443,"x_min":117,"x_max":1336,"o":"m 199 0 l 117 0 l 117 947 l 997 947 q 1253 876 1171 947 q 1336 654 1336 804 q 1256 435 1336 507 q 1007 361 1176 363 l 868 361 l 960 290 l 1307 0 l 1199 0 l 771 358 l 199 358 l 199 0 m 199 875 l 199 426 l 999 426 q 1193 478 1133 426 q 1253 650 1253 531 q 1193 822 1253 769 q 999 875 1133 875 l 199 875 z "},"S":{"ha":1385,"x_min":90,"x_max":1294,"o":"m 1294 238 q 1245 90 1294 143 q 1072 12 1196 38 q 724 -14 947 -14 q 399 3 575 -14 q 104 46 224 21 l 117 117 q 422 74 242 92 q 736 56 601 56 q 1040 75 936 56 q 1180 132 1144 94 q 1215 239 1215 169 q 1163 370 1215 336 q 978 421 1110 404 l 425 481 q 172 546 253 499 q 90 713 90 593 q 211 906 90 850 q 644 961 332 961 q 960 944 786 961 q 1254 901 1135 926 l 1242 833 q 943 874 1122 857 q 633 892 764 892 q 341 873 442 892 q 205 818 240 854 q 169 714 169 782 q 228 597 169 629 q 422 550 286 565 l 954 493 q 1068 478 1024 486 q 1160 452 1113 469 q 1233 409 1207 435 q 1277 340 1260 383 q 1294 238 1294 297 z "},"T":{"ha":1364,"x_min":63,"x_max":1301,"o":"m 642 875 l 63 875 l 63 947 l 1301 947 l 1301 875 l 724 875 l 724 0 l 642 0 l 642 875 z "},"U":{"ha":1475,"x_min":103,"x_max":1372,"o":"m 1290 488 l 1290 947 l 1372 947 l 1372 478 q 1208 110 1372 233 q 738 -14 1043 -14 q 268 110 433 -14 q 103 478 103 233 l 103 947 l 185 947 l 185 488 q 322 165 185 271 q 738 58 458 58 q 1154 165 1018 58 q 1290 488 1290 271 z "},"V":{"ha":1526,"x_min":31,"x_max":1496,"o":"m 710 0 l 31 947 l 131 947 l 764 68 l 1397 947 l 1496 947 l 815 0 l 710 0 z "},"W":{"ha":2289,"x_min":44,"x_max":2244,"o":"m 540 0 l 44 947 l 136 947 l 593 75 l 1092 947 l 1197 947 l 1697 75 l 2153 947 l 2244 947 l 1749 0 l 1649 0 l 1146 878 l 642 0 l 540 0 z "},"X":{"ha":1438,"x_min":58,"x_max":1381,"o":"m 69 947 l 196 947 l 721 525 l 1244 947 l 1368 947 l 785 476 l 1381 0 l 1250 0 l 718 431 l 185 0 l 58 0 l 653 478 l 69 947 z "},"Y":{"ha":1367,"x_min":6,"x_max":1360,"o":"m 642 392 l 6 947 l 118 947 l 683 458 l 1250 947 l 1360 947 l 724 392 l 724 0 l 642 0 l 642 392 z "},"Z":{"ha":1500,"x_min":115,"x_max":1385,"o":"m 1385 72 l 1385 0 l 115 0 l 115 71 l 1071 725 q 1185 789 1108 747 q 1281 842 1261 831 l 1063 838 l 142 838 l 142 911 l 1385 911 l 1385 840 l 451 196 q 224 69 429 182 l 449 72 l 1385 72 z "},"[":{"ha":535,"x_min":126,"x_max":486,"o":"m 486 -229 l 126 -229 l 126 1042 l 486 1042 l 486 976 l 200 976 l 200 -164 l 486 -164 l 486 -229 z "},"\\":{"ha":828,"x_min":22,"x_max":806,"o":"m 806 -229 l 729 -229 l 22 968 l 97 968 l 806 -229 z "},"]":{"ha":535,"x_min":49,"x_max":408,"o":"m 408 -229 l 49 -229 l 49 -164 l 333 -164 l 333 976 l 49 976 l 49 1042 l 408 1042 l 408 -229 z "},"^":{"ha":1029,"x_min":144,"x_max":885,"o":"m 476 906 l 554 906 l 885 238 l 801 238 l 515 822 l 226 238 l 144 238 l 476 906 z "},"_":{"ha":1179,"x_min":78,"x_max":1101,"o":"m 1101 -156 l 78 -156 l 78 -94 l 1101 -94 l 1101 -156 z "},"`":{"ha":517,"x_min":107,"x_max":414,"o":"m 328 825 l 107 996 l 219 996 l 414 825 l 328 825 z "},"a":{"ha":1238,"x_min":89,"x_max":1124,"o":"m 1124 650 l 1124 0 l 1056 0 l 1046 138 q 497 -14 746 -14 q 89 342 89 -14 q 223 617 89 533 q 601 700 357 700 q 1124 650 849 700 m 168 343 q 250 122 168 190 q 508 54 332 54 q 1044 197 732 54 l 1044 593 q 593 632 817 632 q 278 565 388 632 q 168 343 168 497 z "},"b":{"ha":1240,"x_min":117,"x_max":1151,"o":"m 117 0 l 117 1042 l 196 1042 l 196 567 q 742 701 486 701 q 1151 353 1151 701 q 651 0 1151 0 l 117 0 m 735 633 q 474 598 601 633 q 196 500 347 563 l 196 68 l 653 68 q 964 134 856 68 q 1072 350 1072 200 q 990 565 1072 497 q 735 633 908 633 z "},"c":{"ha":1200,"x_min":89,"x_max":1111,"o":"m 89 346 q 231 619 89 538 q 694 701 372 701 q 1111 656 914 701 l 1094 589 q 689 632 911 632 q 286 569 404 632 q 168 346 168 506 q 286 119 168 183 q 689 56 404 56 q 1094 99 911 56 l 1111 31 q 694 -14 921 -14 q 230 69 371 -14 q 89 346 89 151 z "},"d":{"ha":1240,"x_min":89,"x_max":1124,"o":"m 1044 1042 l 1124 1042 l 1124 0 l 1056 0 l 1046 129 q 500 -14 743 -14 q 191 72 293 -14 q 89 333 89 157 q 222 615 89 529 q 599 700 356 700 q 1044 658 821 700 l 1044 1042 m 168 336 q 251 122 168 189 q 511 54 335 54 q 1044 188 728 54 l 1044 592 q 592 632 824 632 q 277 563 386 632 q 168 336 168 494 z "},"e":{"ha":1231,"x_min":89,"x_max":1142,"o":"m 651 53 q 1093 104 888 53 l 1110 39 q 647 -15 893 -15 q 226 65 363 -15 q 89 344 89 146 q 226 618 89 535 q 619 701 363 701 q 1003 625 865 701 q 1142 368 1142 549 q 1136 317 1142 342 l 167 317 q 293 109 176 165 q 651 53 410 53 m 617 639 q 287 578 397 639 q 167 372 176 517 l 1065 372 q 958 575 1058 511 q 617 639 858 639 z "},"f":{"ha":818,"x_min":38,"x_max":886,"o":"m 267 0 l 189 0 l 189 618 l 38 618 l 38 686 l 189 686 l 189 728 q 292 972 189 886 q 607 1057 394 1057 q 886 1029 731 1057 l 872 965 q 604 990 740 990 q 345 925 424 990 q 267 729 267 860 l 267 686 l 818 686 l 818 618 l 267 618 l 267 0 z "},"g":{"ha":1233,"x_min":89,"x_max":1125,"o":"m 1125 650 l 1125 94 q 1002 -186 1125 -107 q 586 -265 879 -265 q 344 -249 479 -265 q 111 -201 208 -232 l 131 -135 q 590 -199 358 -199 q 948 -136 846 -199 q 1049 85 1050 -74 l 1046 160 q 503 18 760 18 q 191 101 293 18 q 89 357 89 183 q 223 620 89 540 q 604 700 357 700 q 1125 650 850 700 m 168 358 q 250 149 168 214 q 508 83 332 83 q 1046 219 739 83 l 1046 593 q 593 632 815 632 q 278 568 388 632 q 168 358 168 504 z "},"h":{"ha":1218,"x_min":117,"x_max":1111,"o":"m 117 0 l 117 1042 l 196 1042 l 196 583 q 714 701 472 701 q 1111 367 1111 701 l 1111 0 l 1032 0 l 1032 365 q 951 564 1032 496 q 689 632 871 632 q 196 521 474 632 l 196 0 l 117 0 z "},"i":{"ha":313,"x_min":117,"x_max":196,"o":"m 196 958 l 196 794 l 117 794 l 117 958 l 196 958 m 117 0 l 117 686 l 196 686 l 196 0 l 117 0 z "},"j":{"ha":313,"x_min":-18,"x_max":196,"o":"m 196 958 l 196 794 l 117 794 l 117 958 l 196 958 m 72 -250 l -18 -250 q 81 -91 46 -169 q 117 97 117 -12 l 117 686 l 196 686 l 196 96 q 176 -56 196 14 q 133 -164 156 -126 q 72 -250 110 -201 z "},"k":{"ha":1089,"x_min":117,"x_max":1082,"o":"m 196 1042 l 196 408 l 481 408 l 944 686 l 1065 686 l 549 369 l 1082 0 l 964 0 l 469 339 l 196 339 l 196 0 l 117 0 l 117 1042 l 196 1042 z "},"l":{"ha":313,"x_min":117,"x_max":196,"o":"m 196 1042 l 196 0 l 117 0 l 117 1042 l 196 1042 z "},"m":{"ha":1989,"x_min":117,"x_max":1881,"o":"m 117 0 l 117 686 l 185 686 l 193 579 q 676 701 465 701 q 986 572 903 701 q 1519 701 1278 701 q 1881 367 1881 701 l 1881 0 l 1803 0 l 1803 365 q 1731 564 1803 496 q 1496 632 1658 632 q 1011 524 1288 632 q 1038 367 1038 461 l 1038 0 l 960 0 l 960 365 q 888 564 960 496 q 653 632 815 632 q 196 521 469 632 l 196 0 l 117 0 z "},"n":{"ha":1218,"x_min":117,"x_max":1111,"o":"m 117 0 l 117 686 l 185 686 l 193 579 q 713 701 469 701 q 1111 367 1111 701 l 1111 0 l 1032 0 l 1032 365 q 951 564 1032 496 q 689 632 871 632 q 196 521 474 632 l 196 0 l 117 0 z "},"o":{"ha":1322,"x_min":89,"x_max":1233,"o":"m 226 72 q 158 114 226 72 q 89 343 89 157 q 227 615 89 529 q 661 701 365 701 q 1095 615 957 701 q 1233 343 1233 529 q 1096 72 1233 157 q 661 -14 958 -14 q 226 72 364 -14 m 282 565 q 225 531 282 565 q 168 343 168 497 q 282 122 168 189 q 661 56 396 56 q 1040 122 926 56 q 1154 343 1154 189 q 1040 565 1154 497 q 661 632 926 632 q 282 565 396 632 z "},"p":{"ha":1240,"x_min":117,"x_max":1151,"o":"m 196 -257 l 117 -257 l 117 686 l 185 686 l 194 557 q 743 700 497 700 q 1151 353 1151 700 q 643 -14 1151 -14 q 196 29 426 -14 l 196 -257 m 732 632 q 196 500 513 632 l 196 94 q 650 54 417 54 q 964 123 856 54 q 1072 350 1072 192 q 990 565 1072 497 q 732 632 908 632 z "},"q":{"ha":1231,"x_min":89,"x_max":1124,"o":"m 1124 650 l 1124 -250 l 1044 -250 l 1044 136 q 497 -14 747 -14 q 190 73 292 -14 q 89 339 89 160 q 222 616 89 532 q 600 700 356 700 q 1124 650 863 700 m 168 343 q 250 123 168 192 q 508 54 332 54 q 1044 197 732 54 l 1044 593 q 592 632 817 632 q 276 565 385 632 q 168 343 168 497 z "},"r":{"ha":799,"x_min":117,"x_max":726,"o":"m 117 0 l 117 686 l 185 686 l 194 528 q 726 701 456 701 l 726 629 q 196 468 460 629 l 196 0 l 117 0 z "},"s":{"ha":1114,"x_min":89,"x_max":1028,"o":"m 1028 169 q 935 24 1028 64 q 593 -15 842 -15 q 104 28 349 -15 l 117 88 q 575 47 363 47 q 875 71 799 47 q 951 171 951 94 q 888 270 951 244 q 657 308 825 296 l 363 328 q 156 376 222 339 q 89 513 89 413 q 199 663 89 624 q 560 701 308 701 q 971 669 760 701 l 958 610 q 549 640 735 640 q 247 615 331 640 q 164 514 164 589 q 178 454 164 478 q 224 418 192 431 q 285 401 256 406 q 369 392 315 396 l 689 369 q 949 314 871 356 q 1028 169 1028 272 z "},"t":{"ha":983,"x_min":25,"x_max":935,"o":"m 210 353 l 210 618 l 25 618 l 25 686 l 211 686 l 225 860 l 289 860 l 289 686 l 901 686 l 901 618 l 289 618 l 289 354 q 356 120 289 186 q 603 54 422 54 q 918 96 743 54 l 935 29 q 599 -15 757 -15 q 297 67 383 -15 q 210 353 210 150 z "},"u":{"ha":1229,"x_min":108,"x_max":1114,"o":"m 108 319 l 108 686 l 186 686 l 186 321 q 269 122 186 190 q 542 54 353 54 q 1036 174 750 54 l 1036 686 l 1114 686 l 1114 0 l 1047 0 l 1038 113 q 518 -15 746 -15 q 108 319 108 -15 z "},"v":{"ha":1190,"x_min":13,"x_max":1178,"o":"m 1178 686 l 618 0 l 531 0 l 13 686 l 107 686 l 574 67 l 1086 686 l 1178 686 z "},"w":{"ha":1738,"x_min":13,"x_max":1725,"o":"m 817 686 l 917 686 l 1325 72 l 1640 686 l 1725 686 l 1367 0 l 1286 0 l 865 632 l 444 0 l 365 0 l 13 686 l 96 686 l 410 74 l 817 686 z "},"x":{"ha":1171,"x_min":13,"x_max":1158,"o":"m 125 0 l 13 0 l 525 351 l 31 686 l 144 686 l 586 392 l 1028 686 l 1140 686 l 646 351 l 1158 0 l 1046 0 l 586 311 l 125 0 z "},"y":{"ha":1261,"x_min":108,"x_max":1144,"o":"m 108 361 l 108 686 l 186 686 l 186 371 q 272 174 186 235 q 547 113 358 113 q 1065 225 786 113 l 1065 686 l 1144 686 l 1144 99 q 1023 -185 1144 -106 q 611 -265 901 -265 q 156 -203 357 -265 l 174 -136 q 614 -199 403 -199 q 967 -136 867 -199 q 1067 86 1068 -74 l 1065 164 q 533 44 801 44 q 211 122 314 44 q 108 361 108 199 z "},"z":{"ha":1168,"x_min":78,"x_max":1090,"o":"m 1090 63 l 1090 0 l 78 0 l 78 63 l 642 425 q 988 624 767 503 l 92 624 l 92 686 l 1090 686 l 1090 624 l 553 276 q 185 63 500 243 l 1090 63 z "},"{":{"ha":746,"x_min":40,"x_max":707,"o":"m 40 368 l 40 443 q 215 485 157 443 q 274 626 274 526 l 274 829 q 334 999 274 943 q 528 1056 394 1056 q 707 1031 619 1056 l 693 964 q 542 986 608 986 q 394 949 440 986 q 349 818 349 913 l 349 626 q 304 471 349 526 q 160 406 260 415 q 349 186 349 386 l 349 -7 q 394 -138 349 -101 q 542 -175 440 -175 q 693 -151 603 -175 l 707 -219 q 528 -244 619 -244 q 334 -188 394 -244 q 274 -18 274 -132 l 274 185 q 216 327 274 286 q 40 368 158 368 z "},"|":{"ha":303,"x_min":117,"x_max":188,"o":"m 188 -229 l 117 -229 l 117 1026 l 188 1026 l 188 -229 z "},"}":{"ha":746,"x_min":40,"x_max":707,"o":"m 707 443 l 707 368 q 531 327 589 368 q 472 185 472 286 l 472 -18 q 412 -188 472 -132 q 218 -244 351 -244 q 40 -219 125 -244 l 53 -151 q 206 -175 147 -175 q 353 -138 307 -175 q 399 -7 399 -101 l 399 186 q 588 406 399 386 q 443 471 488 415 q 399 626 399 526 l 399 818 q 353 949 399 913 q 206 986 307 986 q 53 964 142 986 l 40 1031 q 218 1056 125 1056 q 412 999 351 1056 q 472 829 472 943 l 472 626 q 531 485 472 526 q 707 443 590 443 z "},"~":{"ha":1057,"x_min":100,"x_max":958,"o":"m 714 361 q 513 394 626 361 q 340 428 399 428 q 129 360 232 428 l 100 415 q 342 494 211 494 q 520 462 408 494 q 713 429 632 429 q 928 501 824 429 l 958 444 q 714 361 846 361 z "}," ":{"ha":607,"x_min":0,"x_max":0,"o":""},"¡":{"ha":286,"x_min":103,"x_max":183,"o":"m 103 496 l 103 688 l 183 688 l 183 496 l 103 496 m 103 67 l 117 433 l 169 433 l 183 67 l 183 -260 l 103 -260 l 103 67 z "},"¢":{"ha":1199,"x_min":89,"x_max":1111,"o":"m 89 422 q 214 686 89 604 q 621 776 339 768 l 621 947 l 688 947 l 688 778 l 694 778 q 1111 732 925 778 l 1094 665 q 689 708 911 708 l 688 708 l 688 132 l 689 132 q 1094 175 911 132 l 1111 107 q 694 63 921 63 l 688 63 l 688 -108 l 621 -108 l 621 64 q 214 156 339 72 q 89 422 89 239 m 168 422 q 272 205 168 269 q 621 133 376 140 l 621 707 q 272 636 375 700 q 168 422 168 572 z "},"£":{"ha":1617,"x_min":101,"x_max":1526,"o":"m 101 -10 l 101 63 q 342 111 192 107 l 342 418 l 101 418 l 101 479 l 342 479 l 342 525 q 918 932 342 932 q 1453 864 1181 932 l 1435 793 q 921 858 1158 858 q 551 781 678 858 q 424 525 424 704 l 424 479 l 1313 479 l 1313 418 l 424 418 l 424 111 q 793 78 532 108 q 1192 49 1054 49 q 1504 97 1356 49 l 1526 28 q 1193 -22 1383 -22 q 765 10 1036 -22 q 378 42 494 42 q 101 -10 219 42 z "},"¤":{"ha":1203,"x_min":136,"x_max":1068,"o":"m 140 418 q 285 661 140 588 l 136 803 l 217 803 l 344 686 q 604 721 444 721 q 857 689 754 721 l 982 803 l 1063 803 l 917 665 q 1068 418 1068 589 q 919 172 1068 247 l 1063 36 l 983 36 l 860 149 q 604 115 760 115 q 340 151 446 115 l 215 36 l 136 36 l 283 176 q 140 418 140 250 m 604 176 q 800 176 604 176 q 996 418 996 176 q 604 660 996 660 q 213 418 213 660 q 604 176 213 176 z "},"¥":{"ha":1367,"x_min":6,"x_max":1360,"o":"m 1247 201 l 724 201 l 724 0 l 642 0 l 642 201 l 119 201 l 119 261 l 642 261 l 642 389 l 119 389 l 119 449 l 576 449 l 6 947 l 118 947 l 683 458 l 1250 947 l 1360 947 l 789 449 l 1247 449 l 1247 389 l 724 389 l 724 261 l 1247 261 l 1247 201 z "},"¦":{"ha":294,"x_min":117,"x_max":178,"o":"m 178 1024 l 178 560 l 117 560 l 117 1024 l 178 1024 m 117 -229 l 117 233 l 178 233 l 178 -229 l 117 -229 z "},"§":{"ha":1117,"x_min":89,"x_max":1028,"o":"m 557 -19 q 146 11 360 -19 l 158 75 q 568 43 407 43 q 869 68 786 43 q 951 167 951 93 q 902 249 951 228 q 746 276 853 269 l 413 303 q 163 351 238 315 q 89 475 89 386 q 260 636 89 613 q 133 683 176 649 q 89 789 89 718 q 198 930 89 893 q 560 967 307 967 q 971 936 754 967 l 958 872 q 547 904 725 904 q 247 879 331 904 q 164 781 164 854 q 213 699 164 719 q 369 671 263 678 l 704 644 q 953 597 879 632 q 1028 472 1028 561 q 985 360 1028 403 q 856 311 942 318 q 983 264 939 299 q 1028 158 1028 229 q 919 17 1028 54 q 557 -19 810 -19 m 453 351 l 650 336 q 885 355 815 324 q 956 468 956 386 q 893 560 956 536 q 664 596 831 583 l 476 610 q 233 592 304 622 q 161 479 161 561 q 224 387 161 411 q 453 351 288 363 z "},"¨":{"ha":571,"x_min":103,"x_max":468,"o":"m 176 988 l 176 824 l 103 824 l 103 988 l 176 988 m 468 988 l 468 824 l 394 824 l 394 988 l 468 988 z "},"©":{"ha":1750,"x_min":129,"x_max":1621,"o":"m 875 961 q 1443 835 1265 961 q 1621 453 1621 708 q 1442 71 1621 197 q 875 -56 1264 -56 q 308 72 488 -56 q 129 454 129 199 q 308 835 129 708 q 875 961 488 961 m 875 -1 q 1399 110 1238 -1 q 1561 453 1561 222 q 1399 795 1561 683 q 875 907 1238 907 q 351 795 514 907 q 189 454 189 683 q 351 111 189 224 q 875 -1 514 -1 m 1244 625 q 869 663 1100 663 q 587 615 674 663 q 500 450 500 568 q 587 285 500 332 q 869 238 674 238 q 1244 275 1092 238 l 1258 219 q 869 178 1089 178 q 535 244 638 178 q 432 450 432 310 q 535 656 432 590 q 869 722 638 722 q 1258 682 1086 722 l 1244 625 z "},"ª":{"ha":1065,"x_min":90,"x_max":938,"o":"m 879 442 l 871 547 q 443 426 660 426 q 178 492 267 426 q 90 696 90 557 q 482 961 90 961 q 938 897 710 961 l 938 442 l 879 442 m 479 903 q 376 897 422 903 q 289 878 331 892 q 219 841 247 864 q 175 781 192 818 q 158 696 158 744 q 179 590 158 633 q 242 525 200 547 q 333 494 283 503 q 449 485 382 485 q 869 599 671 485 l 869 851 q 479 903 658 903 z "},"«":{"ha":1199,"x_min":101,"x_max":1097,"o":"m 601 72 l 101 321 l 101 399 l 601 647 l 601 576 l 165 360 l 601 143 l 601 72 m 1097 72 l 597 321 l 597 399 l 1097 647 l 1097 576 l 661 360 l 1097 143 l 1097 72 z "},"¬":{"ha":1022,"x_min":101,"x_max":921,"o":"m 843 208 l 843 464 l 101 464 l 101 533 l 921 533 l 921 208 l 843 208 z "},"­":{"ha":724,"x_min":78,"x_max":646,"o":"m 646 325 l 78 325 l 78 392 l 646 392 l 646 325 z "},"®":{"ha":1750,"x_min":129,"x_max":1621,"o":"m 875 961 q 1443 835 1265 961 q 1621 453 1621 708 q 1442 71 1621 197 q 875 -56 1264 -56 q 308 72 488 -56 q 129 454 129 199 q 308 835 129 708 q 875 961 488 961 m 351 110 q 432 55 351 110 q 875 -1 513 -1 q 1399 110 1238 -1 q 1561 453 1561 221 q 1400 796 1561 685 q 875 907 1239 907 q 351 797 513 907 q 189 454 189 686 q 351 110 189 222 m 610 353 l 610 181 l 543 181 l 543 722 l 1001 722 q 1191 679 1132 722 q 1250 538 1250 636 q 1185 398 1250 439 q 993 357 1121 357 l 1067 304 l 1232 181 l 1143 181 l 913 353 l 610 353 m 993 667 l 610 667 l 610 403 l 993 403 q 1138 435 1093 403 q 1183 536 1183 467 q 1139 637 1183 607 q 993 667 1094 667 z "},"¯":{"ha":675,"x_min":103,"x_max":572,"o":"m 572 885 l 103 885 l 103 946 l 572 946 l 572 885 z "},"°":{"ha":935,"x_min":101,"x_max":835,"o":"m 469 963 q 744 902 653 963 q 835 708 835 842 q 744 515 835 575 q 469 454 653 454 q 192 515 283 454 q 101 708 101 575 q 192 902 101 842 q 469 963 283 963 m 241 858 q 206 836 241 858 q 171 708 171 814 q 240 559 171 603 q 469 515 310 515 q 695 559 626 515 q 764 708 764 603 q 696 858 764 814 q 469 901 628 901 q 241 858 311 901 z "},"±":{"ha":1032,"x_min":106,"x_max":926,"o":"m 926 107 l 106 107 l 106 172 l 481 172 l 481 393 l 106 393 l 106 458 l 481 458 l 481 693 l 550 693 l 550 458 l 926 458 l 926 393 l 550 393 l 550 172 l 926 172 l 926 107 z "},"²":{"ha":710,"x_min":85,"x_max":629,"o":"m 429 651 l 197 569 q 450 579 336 579 l 629 579 l 629 526 l 85 526 l 85 575 l 419 694 q 538 749 510 726 q 567 815 567 772 q 517 891 567 869 q 372 913 467 913 q 103 886 275 913 l 97 936 q 374 963 247 963 q 629 819 629 963 q 585 721 629 753 q 429 651 540 689 z "},"³":{"ha":696,"x_min":85,"x_max":614,"o":"m 344 514 q 85 538 214 514 l 92 588 q 347 564 218 564 q 509 582 463 564 q 556 649 556 600 q 525 704 556 688 q 414 721 494 721 l 174 721 l 174 769 l 414 769 q 517 786 489 769 q 546 839 546 803 q 503 896 546 879 q 357 913 460 913 q 107 890 253 913 l 101 939 q 360 963 215 963 q 548 933 492 963 q 604 842 604 904 q 524 747 604 772 q 614 647 614 728 q 553 546 614 578 q 344 514 492 514 z "},"´":{"ha":517,"x_min":118,"x_max":425,"o":"m 313 996 l 425 996 l 204 825 l 118 825 l 313 996 z "},"¶":{"ha":1467,"x_min":101,"x_max":1226,"o":"m 101 704 q 213 901 101 839 q 565 963 325 963 q 956 947 839 963 l 956 0 l 893 0 l 893 472 q 538 449 721 449 q 101 704 101 449 m 1226 947 l 1226 0 l 1164 0 l 1164 947 l 1226 947 z "},"·":{"ha":286,"x_min":103,"x_max":183,"o":"m 183 544 l 183 351 l 103 351 l 103 544 l 183 544 z "},"¸":{"ha":501,"x_min":103,"x_max":399,"o":"m 338 -68 l 399 -68 l 399 -107 q 360 -217 399 -182 q 228 -253 322 -253 q 103 -237 164 -253 l 115 -182 q 229 -196 171 -196 q 313 -176 288 -196 q 338 -107 338 -156 l 338 -68 z "},"¹":{"ha":411,"x_min":81,"x_max":332,"o":"m 332 526 l 271 526 l 271 826 q 275 890 271 840 l 81 818 l 81 872 l 272 947 l 332 947 l 332 526 z "},"º":{"ha":1039,"x_min":90,"x_max":949,"o":"m 949 692 q 521 425 949 425 q 90 692 90 425 q 521 960 90 960 q 949 692 949 960 m 794 533 q 837 557 794 533 q 881 692 881 582 q 795 851 881 801 q 522 901 710 901 q 246 851 333 901 q 158 692 158 801 q 244 533 158 582 q 519 483 331 483 q 794 533 707 483 z "},"»":{"ha":1199,"x_min":101,"x_max":1097,"o":"m 597 647 l 1097 399 l 1097 321 l 597 72 l 597 143 l 1032 360 l 597 576 l 597 647 m 101 647 l 601 399 l 601 321 l 101 72 l 101 143 l 536 360 l 101 576 l 101 647 z "},"¼":{"ha":1504,"x_min":81,"x_max":1425,"o":"m 332 526 l 271 526 l 271 826 q 275 890 271 840 l 81 818 l 81 872 l 272 947 l 332 947 l 332 526 m 211 0 l 124 0 l 1125 947 l 1213 947 l 211 0 m 1300 0 l 1240 0 l 1240 90 l 774 90 l 774 139 l 1240 421 l 1300 421 l 1300 140 l 1425 140 l 1425 90 l 1300 90 l 1300 0 m 856 138 l 856 133 q 997 140 969 140 l 1240 140 l 1240 361 l 983 206 q 856 138 917 168 z "},"½":{"ha":1553,"x_min":81,"x_max":1472,"o":"m 332 526 l 271 526 l 271 826 q 275 890 271 840 l 81 818 l 81 872 l 272 947 l 332 947 l 332 526 m 211 0 l 124 0 l 1125 947 l 1213 947 l 211 0 m 1272 125 l 1040 43 q 1294 51 1158 51 l 1472 51 l 1472 0 l 928 0 l 928 47 l 1264 167 q 1381 222 1353 199 q 1410 289 1410 244 q 1360 364 1410 343 q 1215 385 1311 385 q 946 358 1099 385 l 940 410 q 1217 435 1100 435 q 1472 293 1472 435 q 1428 194 1472 226 q 1272 125 1383 163 z "},"¾":{"ha":1676,"x_min":85,"x_max":1597,"o":"m 344 514 q 85 538 214 514 l 92 588 q 347 564 218 564 q 509 582 463 564 q 556 649 556 600 q 525 704 556 688 q 414 721 494 721 l 174 721 l 174 769 l 414 769 q 517 786 489 769 q 546 839 546 803 q 503 896 546 879 q 357 913 460 913 q 107 890 253 913 l 101 939 q 360 963 215 963 q 548 933 492 963 q 604 842 604 904 q 524 747 604 772 q 614 647 614 728 q 553 546 614 578 q 344 514 492 514 m 383 0 l 294 0 l 1296 947 l 1383 947 l 383 0 m 1472 0 l 1413 0 l 1413 90 l 944 90 l 944 139 l 1413 421 l 1472 421 l 1472 140 l 1597 140 l 1597 90 l 1472 90 l 1472 0 m 1026 138 l 1026 133 q 1168 140 1142 140 l 1413 140 l 1413 361 l 1156 206 q 1026 138 1085 165 z "},"¿":{"ha":1100,"x_min":89,"x_max":1025,"o":"m 679 496 l 679 686 l 760 686 l 760 496 l 679 496 m 533 304 l 747 304 l 747 243 l 547 243 q 256 199 342 243 q 171 35 171 156 q 266 -130 171 -86 q 581 -174 361 -174 q 1014 -140 775 -174 l 1025 -210 q 585 -244 776 -244 q 205 -183 321 -244 q 89 32 89 -121 q 193 243 89 182 q 533 304 297 304 z "},"À":{"ha":1507,"x_min":8,"x_max":1499,"o":"m 740 1019 l 522 1189 l 635 1189 l 826 1019 l 740 1019 m 1399 0 l 1224 242 l 285 242 l 108 0 l 8 0 l 701 947 l 807 947 l 1499 0 l 1399 0 m 332 307 l 1175 307 l 754 888 l 332 307 z "},"Á":{"ha":1507,"x_min":8,"x_max":1499,"o":"m 906 1189 l 1018 1189 l 799 1019 l 713 1019 l 906 1189 m 1399 0 l 1224 242 l 285 242 l 108 0 l 8 0 l 701 947 l 807 947 l 1499 0 l 1399 0 m 332 307 l 1175 307 l 754 888 l 332 307 z "},"Â":{"ha":1507,"x_min":8,"x_max":1499,"o":"m 1011 1019 l 922 1019 l 753 1143 l 583 1019 l 493 1019 l 713 1190 l 793 1190 l 1011 1019 m 1399 0 l 1224 242 l 285 242 l 108 0 l 8 0 l 701 947 l 807 947 l 1499 0 l 1399 0 m 332 307 l 1175 307 l 754 888 l 332 307 z "},"Ã":{"ha":1507,"x_min":8,"x_max":1499,"o":"m 517 1028 l 517 1085 q 639 1131 576 1131 q 774 1109 692 1131 q 889 1088 857 1088 q 994 1125 933 1088 l 994 1067 q 892 1031 946 1031 q 769 1053 856 1031 q 640 1075 683 1075 q 517 1028 583 1075 m 1399 0 l 1224 242 l 285 242 l 108 0 l 8 0 l 701 947 l 807 947 l 1499 0 l 1399 0 m 332 307 l 1175 307 l 754 888 l 332 307 z "},"Ä":{"ha":1507,"x_min":8,"x_max":1499,"o":"m 644 1183 l 644 1019 l 571 1019 l 571 1183 l 644 1183 m 936 1183 l 936 1019 l 863 1019 l 863 1183 l 936 1183 m 1399 0 l 1224 242 l 285 242 l 108 0 l 8 0 l 701 947 l 807 947 l 1499 0 l 1399 0 m 332 307 l 1175 307 l 754 888 l 332 307 z "},"Å":{"ha":1507,"x_min":8,"x_max":1499,"o":"m 933 1143 q 751 1011 933 1011 q 569 1143 569 1011 q 751 1269 569 1269 q 933 1143 933 1269 m 624 1143 q 652 1080 624 1100 q 751 1060 681 1060 q 851 1080 824 1060 q 879 1143 879 1100 q 851 1202 879 1183 q 751 1221 824 1221 q 652 1201 681 1221 q 624 1143 624 1182 m 1399 0 l 1224 242 l 285 242 l 108 0 l 8 0 l 701 947 l 807 947 l 1499 0 l 1399 0 m 332 307 l 1175 307 l 754 888 l 332 307 z "},"Æ":{"ha":2414,"x_min":8,"x_max":2311,"o":"m 124 0 l 8 0 l 1128 947 l 2311 947 l 2311 878 l 1249 878 l 1249 517 l 2283 517 l 2283 454 l 1249 454 l 1249 69 l 2311 69 l 2311 0 l 1167 0 l 1167 242 l 410 242 l 124 0 m 1167 878 l 486 307 l 1167 307 l 1167 878 z "},"Ç":{"ha":1453,"x_min":89,"x_max":1378,"o":"m 300 788 q 235 738 300 788 q 171 474 171 688 q 299 160 171 260 q 733 60 428 60 q 1361 142 1006 60 l 1378 71 q 732 -14 1054 -14 q 245 103 401 -14 q 89 474 89 221 q 245 844 89 726 q 732 961 401 961 q 1378 876 1044 961 l 1361 804 q 733 888 1013 888 q 300 788 429 888 m 753 -68 l 814 -68 l 814 -107 q 776 -217 814 -182 q 643 -253 738 -253 q 518 -237 579 -253 l 529 -182 q 644 -196 585 -196 q 728 -176 703 -196 q 753 -107 753 -156 l 753 -68 z "},"È":{"ha":1417,"x_min":117,"x_max":1315,"o":"m 756 1019 l 536 1190 l 649 1190 l 842 1019 l 756 1019 m 1315 0 l 117 0 l 117 947 l 1315 947 l 1315 878 l 199 878 l 199 517 l 1288 517 l 1288 454 l 199 454 l 199 69 l 1315 69 l 1315 0 z "},"É":{"ha":1417,"x_min":117,"x_max":1315,"o":"m 921 1190 l 1032 1190 l 814 1019 l 728 1019 l 921 1190 m 1315 0 l 117 0 l 117 947 l 1315 947 l 1315 878 l 199 878 l 199 517 l 1288 517 l 1288 454 l 199 454 l 199 69 l 1315 69 l 1315 0 z "},"Ê":{"ha":1417,"x_min":117,"x_max":1315,"o":"m 1026 1019 l 938 1019 l 768 1143 l 597 1019 l 508 1019 l 728 1190 l 807 1190 l 1026 1019 m 1315 0 l 117 0 l 117 947 l 1315 947 l 1315 878 l 199 878 l 199 517 l 1288 517 l 1288 454 l 199 454 l 199 69 l 1315 69 l 1315 0 z "},"Ë":{"ha":1417,"x_min":117,"x_max":1315,"o":"m 658 1183 l 658 1019 l 585 1019 l 585 1183 l 658 1183 m 950 1183 l 950 1019 l 878 1019 l 878 1183 l 950 1183 m 1315 0 l 117 0 l 117 947 l 1315 947 l 1315 878 l 199 878 l 199 517 l 1288 517 l 1288 454 l 199 454 l 199 69 l 1315 69 l 1315 0 z "},"Ì":{"ha":315,"x_min":-74,"x_max":231,"o":"m 144 1019 l -74 1189 l 39 1189 l 231 1019 l 144 1019 m 199 0 l 117 0 l 117 947 l 199 947 l 199 0 z "},"Í":{"ha":315,"x_min":117,"x_max":422,"o":"m 310 1189 l 422 1189 l 203 1019 l 117 1019 l 310 1189 m 199 0 l 117 0 l 117 947 l 199 947 l 199 0 z "},"Î":{"ha":315,"x_min":-101,"x_max":417,"o":"m 417 1019 l 326 1019 l 157 1143 l -12 1019 l -101 1019 l 117 1190 l 197 1190 l 417 1019 m 199 0 l 117 0 l 117 947 l 199 947 l 199 0 z "},"Ï":{"ha":315,"x_min":-25,"x_max":340,"o":"m 49 1183 l 49 1019 l -25 1019 l -25 1183 l 49 1183 m 340 1183 l 340 1019 l 267 1019 l 267 1183 l 340 1183 m 199 0 l 117 0 l 117 947 l 199 947 l 199 0 z "},"Ð":{"ha":1585,"x_min":14,"x_max":1496,"o":"m 147 442 l 14 442 l 14 501 l 147 501 l 147 947 l 933 947 q 1362 836 1228 947 q 1496 475 1496 725 q 1362 113 1496 225 q 933 0 1228 0 l 147 0 l 147 442 m 229 443 l 229 72 l 929 72 q 1302 167 1192 72 q 1413 475 1413 261 q 1303 783 1413 690 q 929 875 1193 875 l 229 875 l 229 500 l 688 500 l 688 443 l 229 443 z "},"Ñ":{"ha":1504,"x_min":117,"x_max":1388,"o":"m 500 1028 l 500 1085 q 622 1131 556 1131 q 758 1110 675 1131 q 872 1089 840 1089 q 976 1125 917 1089 l 976 1068 q 875 1031 929 1031 q 752 1053 839 1031 q 624 1075 665 1075 q 500 1028 561 1075 m 199 0 l 117 0 l 117 947 l 214 947 l 1306 88 l 1306 947 l 1388 947 l 1388 0 l 1290 0 l 199 863 l 199 0 z "},"Ò":{"ha":1625,"x_min":89,"x_max":1536,"o":"m 801 1019 l 582 1190 l 694 1190 l 888 1019 l 801 1019 m 1360 101 q 1272 43 1360 101 q 813 -15 1183 -15 q 265 101 442 -15 q 89 474 89 218 q 265 846 89 729 q 813 963 442 963 q 1360 846 1183 963 q 1536 474 1536 729 q 1360 101 1536 218 m 319 160 q 393 110 319 160 q 813 60 467 60 q 1306 160 1158 60 q 1453 474 1453 260 q 1306 788 1453 688 q 813 888 1158 888 q 319 788 467 888 q 171 474 171 688 q 319 160 171 260 z "},"Ó":{"ha":1625,"x_min":89,"x_max":1536,"o":"m 965 1190 l 1078 1190 l 860 1019 l 774 1019 l 965 1190 m 1360 101 q 1272 43 1360 101 q 813 -15 1183 -15 q 265 101 442 -15 q 89 474 89 218 q 265 846 89 729 q 813 963 442 963 q 1360 846 1183 963 q 1536 474 1536 729 q 1360 101 1536 218 m 319 160 q 393 110 319 160 q 813 60 467 60 q 1306 160 1158 60 q 1453 474 1453 260 q 1306 788 1453 688 q 813 888 1158 888 q 319 788 467 888 q 171 474 171 688 q 319 160 171 260 z "},"Ô":{"ha":1625,"x_min":89,"x_max":1536,"o":"m 1072 1019 l 982 1019 l 813 1143 l 643 1019 l 554 1019 l 772 1190 l 853 1190 l 1072 1019 m 1360 101 q 1272 43 1360 101 q 813 -15 1183 -15 q 265 101 442 -15 q 89 474 89 218 q 265 846 89 729 q 813 963 442 963 q 1360 846 1183 963 q 1536 474 1536 729 q 1360 101 1536 218 m 319 160 q 393 110 319 160 q 813 60 467 60 q 1306 160 1158 60 q 1453 474 1453 260 q 1306 788 1453 688 q 813 888 1158 888 q 319 788 467 888 q 171 474 171 688 q 319 160 171 260 z "},"Õ":{"ha":1625,"x_min":89,"x_max":1536,"o":"m 578 1028 l 578 1085 q 699 1131 631 1131 q 834 1110 751 1131 q 950 1089 917 1089 q 1054 1125 994 1089 l 1054 1068 q 953 1031 1007 1031 q 830 1053 917 1031 q 701 1075 743 1075 q 578 1028 639 1075 m 1360 101 q 1272 43 1360 101 q 813 -15 1183 -15 q 265 101 442 -15 q 89 474 89 218 q 265 846 89 729 q 813 963 442 963 q 1360 846 1183 963 q 1536 474 1536 729 q 1360 101 1536 218 m 319 160 q 393 110 319 160 q 813 60 467 60 q 1306 160 1158 60 q 1453 474 1453 260 q 1306 788 1453 688 q 813 888 1158 888 q 319 788 467 888 q 171 474 171 688 q 319 160 171 260 z "},"Ö":{"ha":1625,"x_min":89,"x_max":1536,"o":"m 704 1183 l 704 1019 l 631 1019 l 631 1183 l 704 1183 m 996 1183 l 996 1019 l 922 1019 l 922 1183 l 996 1183 m 1360 101 q 1272 43 1360 101 q 813 -15 1183 -15 q 265 101 442 -15 q 89 474 89 218 q 265 846 89 729 q 813 963 442 963 q 1360 846 1183 963 q 1536 474 1536 729 q 1360 101 1536 218 m 319 160 q 393 110 319 160 q 813 60 467 60 q 1306 160 1158 60 q 1453 474 1453 260 q 1306 788 1453 688 q 813 888 1158 888 q 319 788 467 888 q 171 474 171 688 q 319 160 171 260 z "},"×":{"ha":985,"x_min":101,"x_max":883,"o":"m 883 224 l 850 167 l 493 376 l 135 167 l 101 224 l 431 413 l 101 600 l 135 658 l 492 449 l 850 658 l 883 600 l 554 411 l 883 224 z "},"Ø":{"ha":1625,"x_min":89,"x_max":1536,"o":"m 293 -37 l 203 -37 l 331 65 q 89 474 89 179 q 265 846 89 729 q 813 963 442 963 q 1321 868 1150 963 l 1425 953 l 1514 953 l 1371 838 q 1536 474 1536 719 q 1360 101 1536 218 q 813 -15 1183 -15 q 390 42 551 -15 l 293 -37 m 171 474 q 396 119 171 210 l 1256 815 q 813 888 1106 888 q 319 788 467 888 q 171 474 171 688 m 813 60 q 1306 160 1158 60 q 1453 474 1453 260 q 1308 786 1453 688 l 460 99 q 813 60 594 60 z "},"Ù":{"ha":1475,"x_min":103,"x_max":1372,"o":"m 725 1019 l 507 1189 l 618 1189 l 811 1019 l 725 1019 m 1290 488 l 1290 947 l 1372 947 l 1372 478 q 1208 110 1372 233 q 738 -14 1043 -14 q 268 110 433 -14 q 103 478 103 233 l 103 947 l 185 947 l 185 488 q 322 165 185 271 q 738 58 458 58 q 1154 165 1018 58 q 1290 488 1290 271 z "},"Ú":{"ha":1475,"x_min":103,"x_max":1372,"o":"m 890 1189 l 1003 1189 l 783 1019 l 697 1019 l 890 1189 m 1290 488 l 1290 947 l 1372 947 l 1372 478 q 1208 110 1372 233 q 738 -14 1043 -14 q 268 110 433 -14 q 103 478 103 233 l 103 947 l 185 947 l 185 488 q 322 165 185 271 q 738 58 458 58 q 1154 165 1018 58 q 1290 488 1290 271 z "},"Û":{"ha":1475,"x_min":103,"x_max":1372,"o":"m 996 1019 l 907 1019 l 738 1143 l 568 1019 l 478 1019 l 697 1190 l 778 1190 l 996 1019 m 1290 488 l 1290 947 l 1372 947 l 1372 478 q 1208 110 1372 233 q 738 -14 1043 -14 q 268 110 433 -14 q 103 478 103 233 l 103 947 l 185 947 l 185 488 q 322 165 185 271 q 738 58 458 58 q 1154 165 1018 58 q 1290 488 1290 271 z "},"Ü":{"ha":1475,"x_min":103,"x_max":1372,"o":"m 628 1183 l 628 1019 l 556 1019 l 556 1183 l 628 1183 m 921 1183 l 921 1019 l 847 1019 l 847 1183 l 921 1183 m 1290 488 l 1290 947 l 1372 947 l 1372 478 q 1208 110 1372 233 q 738 -14 1043 -14 q 268 110 433 -14 q 103 478 103 233 l 103 947 l 185 947 l 185 488 q 322 165 185 271 q 738 58 458 58 q 1154 165 1018 58 q 1290 488 1290 271 z "},"Ý":{"ha":1367,"x_min":6,"x_max":1360,"o":"m 836 1190 l 947 1190 l 729 1019 l 643 1019 l 836 1190 m 642 392 l 6 947 l 118 947 l 683 458 l 1250 947 l 1360 947 l 724 392 l 724 0 l 642 0 l 642 392 z "},"Þ":{"ha":1406,"x_min":117,"x_max":1349,"o":"m 199 0 l 117 0 l 117 947 l 199 947 l 199 757 l 1010 757 q 1266 688 1183 757 q 1349 474 1349 618 q 1266 260 1349 329 q 1010 190 1183 190 l 199 190 l 199 0 m 199 686 l 199 261 l 1010 261 q 1206 310 1146 261 q 1265 474 1265 360 q 1206 637 1265 588 q 1010 686 1146 686 l 199 686 z "},"ß":{"ha":1317,"x_min":117,"x_max":1229,"o":"m 804 -14 q 349 40 569 -14 l 356 108 q 801 56 607 56 q 1067 107 983 56 q 1150 288 1150 158 q 1090 456 1150 404 q 899 508 1031 508 l 357 508 l 357 572 l 890 572 q 1058 613 1003 572 q 1114 756 1114 654 q 1026 938 1114 889 q 694 986 939 986 q 477 973 564 986 q 324 924 390 960 q 226 824 257 889 q 196 661 196 760 l 196 0 l 117 0 l 117 657 q 258 967 117 879 q 697 1056 400 1056 q 1086 987 979 1056 q 1193 761 1193 918 q 1026 546 1193 590 q 1229 278 1229 504 q 1125 57 1229 128 q 804 -14 1021 -14 z "},"à":{"ha":1238,"x_min":89,"x_max":1124,"o":"m 622 826 l 401 997 l 514 997 l 708 826 l 622 826 m 1124 650 l 1124 0 l 1056 0 l 1046 138 q 497 -14 746 -14 q 89 342 89 -14 q 223 617 89 533 q 601 700 357 700 q 1124 650 849 700 m 168 343 q 250 122 168 190 q 508 54 332 54 q 1044 197 732 54 l 1044 593 q 593 632 817 632 q 278 565 388 632 q 168 343 168 497 z "},"á":{"ha":1238,"x_min":89,"x_max":1124,"o":"m 825 997 l 938 997 l 717 826 l 631 826 l 825 997 m 1124 650 l 1124 0 l 1056 0 l 1046 138 q 497 -14 746 -14 q 89 342 89 -14 q 223 617 89 533 q 601 700 357 700 q 1124 650 849 700 m 168 343 q 250 122 168 190 q 508 54 332 54 q 1044 197 732 54 l 1044 593 q 593 632 817 632 q 278 565 388 632 q 168 343 168 497 z "},"â":{"ha":1238,"x_min":89,"x_max":1124,"o":"m 929 826 l 840 826 l 671 950 l 501 826 l 411 826 l 631 997 l 711 997 l 929 826 m 1124 650 l 1124 0 l 1056 0 l 1046 138 q 497 -14 746 -14 q 89 342 89 -14 q 223 617 89 533 q 601 700 357 700 q 1124 650 849 700 m 168 343 q 250 122 168 190 q 508 54 332 54 q 1044 197 732 54 l 1044 593 q 593 632 817 632 q 278 565 388 632 q 168 343 168 497 z "},"ã":{"ha":1238,"x_min":89,"x_max":1124,"o":"m 439 835 l 439 892 q 560 938 492 938 q 696 917 614 938 q 811 896 778 896 q 915 932 856 896 l 915 875 q 814 838 868 838 q 691 860 778 838 q 563 883 604 883 q 439 835 503 883 m 1124 650 l 1124 0 l 1056 0 l 1046 138 q 497 -14 746 -14 q 89 342 89 -14 q 223 617 89 533 q 601 700 357 700 q 1124 650 849 700 m 168 343 q 250 122 168 190 q 508 54 332 54 q 1044 197 732 54 l 1044 593 q 593 632 817 632 q 278 565 388 632 q 168 343 168 497 z "},"ä":{"ha":1238,"x_min":89,"x_max":1124,"o":"m 560 989 l 560 825 l 488 825 l 488 989 l 560 989 m 853 989 l 853 825 l 779 825 l 779 989 l 853 989 m 1124 650 l 1124 0 l 1056 0 l 1046 138 q 497 -14 746 -14 q 89 342 89 -14 q 223 617 89 533 q 601 700 357 700 q 1124 650 849 700 m 168 343 q 250 122 168 190 q 508 54 332 54 q 1044 197 732 54 l 1044 593 q 593 632 817 632 q 278 565 388 632 q 168 343 168 497 z "},"å":{"ha":1238,"x_min":89,"x_max":1124,"o":"m 671 813 q 488 943 488 813 q 671 1069 488 1069 q 853 943 853 1069 q 671 813 853 813 m 543 943 q 571 881 543 900 q 671 861 599 861 q 770 881 743 861 q 797 943 797 900 q 770 1002 797 983 q 671 1021 743 1021 q 571 1002 599 1021 q 543 943 543 983 m 1124 650 l 1124 0 l 1056 0 l 1046 138 q 497 -14 746 -14 q 89 342 89 -14 q 223 617 89 533 q 601 700 357 700 q 1124 650 849 700 m 168 343 q 250 122 168 190 q 508 54 332 54 q 1044 197 732 54 l 1044 593 q 593 632 817 632 q 278 565 388 632 q 168 343 168 497 z "},"æ":{"ha":2171,"x_min":114,"x_max":2082,"o":"m 1592 53 q 2033 104 1832 53 l 2051 39 q 1589 -15 1835 -15 q 1241 30 1371 -15 q 1063 182 1111 75 q 765 41 933 97 q 424 -15 597 -15 q 190 31 267 -15 q 114 179 114 76 q 194 326 114 281 q 460 371 274 371 l 1031 371 q 1010 486 1028 440 q 948 567 993 532 q 820 617 903 601 q 610 632 738 632 q 179 569 408 632 l 163 639 q 614 701 379 701 q 926 659 818 701 q 1075 525 1035 617 q 1561 701 1182 701 q 1770 685 1679 701 q 1933 631 1861 668 q 2044 528 2006 594 q 2082 368 2082 461 q 2078 317 2082 336 l 1108 317 q 1234 109 1118 165 q 1592 53 1350 53 m 1558 639 q 1228 578 1339 639 q 1108 372 1118 517 l 2006 372 q 1899 575 1999 511 q 1558 639 1799 639 m 431 49 q 767 102 606 49 q 1043 235 928 156 q 1032 315 1033 276 l 475 315 q 256 289 322 315 q 190 183 190 263 q 246 78 190 107 q 431 49 301 49 z "},"ç":{"ha":1200,"x_min":89,"x_max":1111,"o":"m 89 346 q 231 619 89 538 q 694 701 372 701 q 1111 656 914 701 l 1094 589 q 689 632 911 632 q 286 569 404 632 q 168 346 168 506 q 286 119 168 183 q 689 56 404 56 q 1094 99 911 56 l 1111 31 q 694 -14 921 -14 q 230 69 371 -14 q 89 346 89 151 m 732 -68 l 793 -68 l 793 -107 q 755 -217 793 -182 q 622 -253 717 -253 q 497 -237 558 -253 l 508 -182 q 624 -196 564 -196 q 707 -176 682 -196 q 732 -107 732 -156 l 732 -68 z "},"è":{"ha":1231,"x_min":89,"x_max":1142,"o":"m 567 826 l 346 997 l 458 997 l 653 826 l 567 826 m 651 53 q 1093 104 888 53 l 1110 39 q 647 -15 893 -15 q 226 65 363 -15 q 89 344 89 146 q 226 618 89 535 q 619 701 363 701 q 1003 625 865 701 q 1142 368 1142 549 q 1136 317 1142 342 l 167 317 q 293 109 176 165 q 651 53 410 53 m 617 639 q 287 578 397 639 q 167 372 176 517 l 1065 372 q 958 575 1058 511 q 617 639 858 639 z "},"é":{"ha":1231,"x_min":89,"x_max":1142,"o":"m 771 997 l 882 997 l 661 826 l 575 826 l 771 997 m 651 53 q 1093 104 888 53 l 1110 39 q 647 -15 893 -15 q 226 65 363 -15 q 89 344 89 146 q 226 618 89 535 q 619 701 363 701 q 1003 625 865 701 q 1142 368 1142 549 q 1136 317 1142 342 l 167 317 q 293 109 176 165 q 651 53 410 53 m 617 639 q 287 578 397 639 q 167 372 176 517 l 1065 372 q 958 575 1058 511 q 617 639 858 639 z "},"ê":{"ha":1231,"x_min":89,"x_max":1142,"o":"m 875 826 l 785 826 l 615 950 l 446 826 l 357 826 l 575 997 l 656 997 l 875 826 m 651 53 q 1093 104 888 53 l 1110 39 q 647 -15 893 -15 q 226 65 363 -15 q 89 344 89 146 q 226 618 89 535 q 619 701 363 701 q 1003 625 865 701 q 1142 368 1142 549 q 1136 317 1142 342 l 167 317 q 293 109 176 165 q 651 53 410 53 m 617 639 q 287 578 397 639 q 167 372 176 517 l 1065 372 q 958 575 1058 511 q 617 639 858 639 z "},"ë":{"ha":1231,"x_min":89,"x_max":1142,"o":"m 506 989 l 506 825 l 432 825 l 432 989 l 506 989 m 797 989 l 797 825 l 725 825 l 725 989 l 797 989 m 651 53 q 1093 104 888 53 l 1110 39 q 647 -15 893 -15 q 226 65 363 -15 q 89 344 89 146 q 226 618 89 535 q 619 701 363 701 q 1003 625 865 701 q 1142 368 1142 549 q 1136 317 1142 342 l 167 317 q 293 109 176 165 q 651 53 410 53 m 617 639 q 287 578 397 639 q 167 372 176 517 l 1065 372 q 958 575 1058 511 q 617 639 858 639 z "},"ì":{"ha":310,"x_min":-112,"x_max":196,"o":"m 108 826 l -112 997 l 0 997 l 194 826 l 108 826 m 117 0 l 117 686 l 196 686 l 196 0 l 117 0 z "},"í":{"ha":310,"x_min":115,"x_max":424,"o":"m 311 997 l 424 997 l 203 826 l 115 826 l 311 997 m 117 0 l 117 686 l 196 686 l 196 0 l 117 0 z "},"î":{"ha":310,"x_min":-103,"x_max":415,"o":"m 415 826 l 326 826 l 157 950 l -14 826 l -103 826 l 117 997 l 197 997 l 415 826 m 117 0 l 117 686 l 196 686 l 196 0 l 117 0 z "},"ï":{"ha":310,"x_min":-26,"x_max":339,"o":"m 46 989 l 46 825 l -26 825 l -26 989 l 46 989 m 339 989 l 339 825 l 265 825 l 265 989 l 339 989 m 117 0 l 117 686 l 196 686 l 196 0 l 117 0 z "},"ð":{"ha":1321,"x_min":89,"x_max":1219,"o":"m 749 726 l 663 726 l 817 843 q 519 958 699 904 l 674 958 q 868 882 775 929 l 1003 983 l 1088 983 l 918 856 q 1219 403 1219 681 q 1078 99 1219 213 q 646 -14 936 -14 q 89 336 89 -14 q 569 663 89 663 q 895 613 751 663 q 1133 489 1039 563 q 865 815 1092 681 l 749 726 m 646 53 q 1019 146 897 53 q 1142 404 1142 239 l 1142 410 q 901 542 1054 488 q 572 596 747 596 q 168 336 168 596 q 288 122 168 190 q 646 53 408 53 z "},"ñ":{"ha":1218,"x_min":117,"x_max":1111,"o":"m 388 835 l 388 892 q 510 938 443 938 q 645 917 563 938 q 760 896 728 896 q 864 932 804 896 l 864 875 q 763 838 817 838 q 640 860 726 838 q 511 883 553 883 q 388 835 450 883 m 117 0 l 117 686 l 185 686 l 193 579 q 713 701 469 701 q 1111 367 1111 701 l 1111 0 l 1032 0 l 1032 365 q 951 564 1032 496 q 689 632 871 632 q 196 521 474 632 l 196 0 l 117 0 z "},"ò":{"ha":1322,"x_min":89,"x_max":1233,"o":"m 614 826 l 393 997 l 506 997 l 700 826 l 614 826 m 226 72 q 158 114 226 72 q 89 343 89 157 q 227 615 89 529 q 661 701 365 701 q 1095 615 957 701 q 1233 343 1233 529 q 1096 72 1233 157 q 661 -14 958 -14 q 226 72 364 -14 m 282 565 q 225 531 282 565 q 168 343 168 497 q 282 122 168 189 q 661 56 396 56 q 1040 122 926 56 q 1154 343 1154 189 q 1040 565 1154 497 q 661 632 926 632 q 282 565 396 632 z "},"ó":{"ha":1322,"x_min":89,"x_max":1233,"o":"m 817 997 l 929 997 l 707 826 l 621 826 l 817 997 m 226 72 q 158 114 226 72 q 89 343 89 157 q 227 615 89 529 q 661 701 365 701 q 1095 615 957 701 q 1233 343 1233 529 q 1096 72 1233 157 q 661 -14 958 -14 q 226 72 364 -14 m 282 565 q 225 531 282 565 q 168 343 168 497 q 282 122 168 189 q 661 56 396 56 q 1040 122 926 56 q 1154 343 1154 189 q 1040 565 1154 497 q 661 632 926 632 q 282 565 396 632 z "},"ô":{"ha":1322,"x_min":89,"x_max":1233,"o":"m 921 826 l 832 826 l 663 950 l 492 826 l 403 826 l 622 997 l 703 997 l 921 826 m 226 72 q 158 114 226 72 q 89 343 89 157 q 227 615 89 529 q 661 701 365 701 q 1095 615 957 701 q 1233 343 1233 529 q 1096 72 1233 157 q 661 -14 958 -14 q 226 72 364 -14 m 282 565 q 225 531 282 565 q 168 343 168 497 q 282 122 168 189 q 661 56 396 56 q 1040 122 926 56 q 1154 343 1154 189 q 1040 565 1154 497 q 661 632 926 632 q 282 565 396 632 z "},"õ":{"ha":1322,"x_min":89,"x_max":1233,"o":"m 424 824 l 424 881 q 546 925 481 925 q 681 904 599 925 q 796 883 764 883 q 901 921 842 883 l 901 863 q 799 826 853 826 q 676 849 763 826 q 547 871 590 871 q 424 824 490 871 m 226 72 q 158 114 226 72 q 89 343 89 157 q 227 615 89 529 q 661 701 365 701 q 1095 615 957 701 q 1233 343 1233 529 q 1096 72 1233 157 q 661 -14 958 -14 q 226 72 364 -14 m 282 565 q 225 531 282 565 q 168 343 168 497 q 282 122 168 189 q 661 56 396 56 q 1040 122 926 56 q 1154 343 1154 189 q 1040 565 1154 497 q 661 632 926 632 q 282 565 396 632 z "},"ö":{"ha":1322,"x_min":89,"x_max":1233,"o":"m 551 989 l 551 825 l 479 825 l 479 989 l 551 989 m 844 989 l 844 825 l 771 825 l 771 989 l 844 989 m 226 72 q 158 114 226 72 q 89 343 89 157 q 227 615 89 529 q 661 701 365 701 q 1095 615 957 701 q 1233 343 1233 529 q 1096 72 1233 157 q 661 -14 958 -14 q 226 72 364 -14 m 282 565 q 225 531 282 565 q 168 343 168 497 q 282 122 168 189 q 661 56 396 56 q 1040 122 926 56 q 1154 343 1154 189 q 1040 565 1154 497 q 661 632 926 632 q 282 565 396 632 z "},"÷":{"ha":1022,"x_min":101,"x_max":921,"o":"m 539 761 l 539 568 l 458 568 l 458 761 l 539 761 m 921 393 l 101 393 l 101 460 l 921 460 l 921 393 m 539 283 l 539 92 l 458 92 l 458 283 l 539 283 z "},"ø":{"ha":1347,"x_min":89,"x_max":1233,"o":"m 89 343 q 227 615 89 529 q 661 701 365 701 q 1003 658 874 701 l 1090 735 l 1176 735 l 1061 635 q 1233 343 1233 549 q 1096 72 1233 157 q 661 -14 958 -14 q 357 18 472 -14 l 283 -46 l 194 -46 l 292 39 q 89 343 89 121 m 168 343 q 212 183 168 244 q 353 92 256 122 l 940 604 q 661 632 838 632 q 282 565 396 632 q 168 343 168 497 m 1154 343 q 1003 583 1154 518 l 421 74 q 661 56 515 56 q 1040 122 926 56 q 1154 343 1154 189 z "},"ù":{"ha":1229,"x_min":108,"x_max":1114,"o":"m 617 826 l 396 997 l 508 997 l 703 826 l 617 826 m 108 319 l 108 686 l 186 686 l 186 321 q 269 122 186 190 q 542 54 353 54 q 1036 174 750 54 l 1036 686 l 1114 686 l 1114 0 l 1047 0 l 1038 113 q 518 -15 746 -15 q 108 319 108 -15 z "},"ú":{"ha":1229,"x_min":108,"x_max":1114,"o":"m 819 997 l 932 997 l 711 826 l 624 826 l 819 997 m 108 319 l 108 686 l 186 686 l 186 321 q 269 122 186 190 q 542 54 353 54 q 1036 174 750 54 l 1036 686 l 1114 686 l 1114 0 l 1047 0 l 1038 113 q 518 -15 746 -15 q 108 319 108 -15 z "},"û":{"ha":1229,"x_min":108,"x_max":1114,"o":"m 924 826 l 835 826 l 665 950 l 494 826 l 406 826 l 625 997 l 706 997 l 924 826 m 108 319 l 108 686 l 186 686 l 186 321 q 269 122 186 190 q 542 54 353 54 q 1036 174 750 54 l 1036 686 l 1114 686 l 1114 0 l 1047 0 l 1038 113 q 518 -15 746 -15 q 108 319 108 -15 z "},"ü":{"ha":1229,"x_min":108,"x_max":1114,"o":"m 554 989 l 554 825 l 482 825 l 482 989 l 554 989 m 847 989 l 847 825 l 774 825 l 774 989 l 847 989 m 108 319 l 108 686 l 186 686 l 186 321 q 269 122 186 190 q 542 54 353 54 q 1036 174 750 54 l 1036 686 l 1114 686 l 1114 0 l 1047 0 l 1038 113 q 518 -15 746 -15 q 108 319 108 -15 z "},"ý":{"ha":1242,"x_min":108,"x_max":1144,"o":"m 767 997 l 879 997 l 657 826 l 571 826 l 767 997 m 108 361 l 108 686 l 186 686 l 186 371 q 272 174 186 235 q 547 113 358 113 q 1065 225 786 113 l 1065 686 l 1144 686 l 1144 99 q 1023 -185 1144 -106 q 611 -265 901 -265 q 156 -203 357 -265 l 174 -136 q 614 -199 403 -199 q 967 -136 867 -199 q 1067 86 1068 -74 l 1065 164 q 533 44 801 44 q 211 122 314 44 q 108 361 108 199 z "},"þ":{"ha":1240,"x_min":117,"x_max":1151,"o":"m 196 -257 l 117 -257 l 117 1042 l 196 1042 l 196 558 q 743 700 496 700 q 1151 353 1151 700 q 643 -14 1151 -14 q 196 29 426 -14 l 196 -257 m 732 632 q 196 500 513 632 l 196 94 q 650 54 417 54 q 964 123 856 54 q 1072 350 1072 192 q 990 565 1072 497 q 732 632 908 632 z "},"ÿ":{"ha":1242,"x_min":108,"x_max":1144,"o":"m 501 989 l 501 825 l 429 825 l 429 989 l 501 989 m 794 989 l 794 825 l 721 825 l 721 989 l 794 989 m 108 361 l 108 686 l 186 686 l 186 371 q 272 174 186 235 q 547 113 358 113 q 1065 225 786 113 l 1065 686 l 1144 686 l 1144 99 q 1023 -185 1144 -106 q 611 -265 901 -265 q 156 -203 357 -265 l 174 -136 q 614 -199 403 -199 q 967 -136 867 -199 q 1067 86 1068 -74 l 1065 164 q 533 44 801 44 q 211 122 314 44 q 108 361 108 199 z "},"Ā":{"ha":1507,"x_min":8,"x_max":1499,"o":"m 990 1079 l 519 1079 l 519 1139 l 990 1139 l 990 1079 m 1399 0 l 1224 242 l 285 242 l 108 0 l 8 0 l 701 947 l 807 947 l 1499 0 l 1399 0 m 332 307 l 1175 307 l 754 888 l 332 307 z "},"ā":{"ha":1238,"x_min":89,"x_max":1124,"o":"m 918 840 l 449 840 l 449 901 l 918 901 l 918 840 m 1124 650 l 1124 0 l 1056 0 l 1046 138 q 497 -14 746 -14 q 89 342 89 -14 q 223 617 89 533 q 601 700 357 700 q 1124 650 849 700 m 168 343 q 250 122 168 190 q 508 54 332 54 q 1044 197 732 54 l 1044 593 q 593 632 817 632 q 278 565 388 632 q 168 343 168 497 z "},"Ă":{"ha":1507,"x_min":8,"x_max":1499,"o":"m 910 1186 l 978 1186 q 923 1062 978 1108 q 751 1015 868 1015 q 581 1062 636 1015 q 525 1186 525 1108 l 592 1186 q 627 1099 592 1129 q 751 1069 663 1069 q 875 1099 840 1069 q 910 1186 910 1128 m 1399 0 l 1224 242 l 285 242 l 108 0 l 8 0 l 701 947 l 807 947 l 1499 0 l 1399 0 m 332 307 l 1175 307 l 754 888 l 332 307 z "},"ă":{"ha":1238,"x_min":89,"x_max":1124,"o":"m 829 990 l 896 990 q 841 867 896 914 q 671 821 786 821 q 500 867 556 821 q 444 990 444 914 l 511 990 q 547 904 511 933 q 671 875 582 875 q 794 904 760 875 q 829 990 829 933 m 1124 650 l 1124 0 l 1056 0 l 1046 138 q 497 -14 746 -14 q 89 342 89 -14 q 223 617 89 533 q 601 700 357 700 q 1124 650 849 700 m 168 343 q 250 122 168 190 q 508 54 332 54 q 1044 197 732 54 l 1044 593 q 593 632 817 632 q 278 565 388 632 q 168 343 168 497 z "},"Ą":{"ha":1507,"x_min":8,"x_max":1500,"o":"m 1399 0 l 1224 242 l 285 242 l 108 0 l 8 0 l 701 947 l 807 947 l 1499 0 l 1461 0 q 1275 -160 1275 -87 q 1336 -201 1275 -201 q 1481 -167 1400 -201 l 1500 -214 q 1331 -257 1418 -257 q 1215 -171 1215 -257 q 1271 -73 1215 -119 q 1404 0 1326 -26 l 1399 0 m 332 307 l 1175 307 l 754 888 l 332 307 z "},"ą":{"ha":1238,"x_min":89,"x_max":1149,"o":"m 1124 650 l 1124 0 l 1111 0 q 925 -160 925 -87 q 985 -201 925 -201 q 1131 -167 1047 -201 l 1149 -214 q 979 -257 1068 -257 q 894 -235 925 -257 q 864 -171 864 -212 q 923 -70 864 -119 q 1056 3 982 -21 l 1046 138 q 497 -14 746 -14 q 89 342 89 -14 q 223 617 89 533 q 601 700 357 700 q 1124 650 849 700 m 168 343 q 250 122 168 190 q 508 54 332 54 q 1044 197 732 54 l 1044 593 q 593 632 817 632 q 278 565 388 632 q 168 343 168 497 z "},"Ć":{"ha":1453,"x_min":89,"x_max":1378,"o":"m 949 1190 l 1060 1190 l 842 1019 l 756 1019 l 949 1190 m 300 788 q 235 738 300 788 q 171 474 171 688 q 299 160 171 260 q 733 60 428 60 q 1361 142 1006 60 l 1378 71 q 732 -14 1054 -14 q 245 103 401 -14 q 89 474 89 221 q 245 844 89 726 q 732 961 401 961 q 1378 876 1044 961 l 1361 804 q 733 888 1013 888 q 300 788 429 888 z "},"ć":{"ha":1200,"x_min":89,"x_max":1111,"o":"m 808 997 l 921 997 l 700 826 l 614 826 l 808 997 m 89 346 q 231 619 89 538 q 694 701 372 701 q 1111 656 914 701 l 1094 589 q 689 632 911 632 q 286 569 404 632 q 168 346 168 506 q 286 119 168 183 q 689 56 404 56 q 1094 99 911 56 l 1111 31 q 694 -14 921 -14 q 230 69 371 -14 q 89 346 89 151 z "},"Ĉ":{"ha":1453,"x_min":89,"x_max":1378,"o":"m 1054 1019 l 965 1019 l 796 1143 l 625 1019 l 536 1019 l 756 1190 l 836 1190 l 1054 1019 m 300 788 q 235 738 300 788 q 171 474 171 688 q 299 160 171 260 q 733 60 428 60 q 1361 142 1006 60 l 1378 71 q 732 -14 1054 -14 q 245 103 401 -14 q 89 474 89 221 q 245 844 89 726 q 732 961 401 961 q 1378 876 1044 961 l 1361 804 q 733 888 1013 888 q 300 788 429 888 z "},"ĉ":{"ha":1200,"x_min":88,"x_max":1110,"o":"m 861 826 l 772 826 l 603 950 l 433 826 l 343 826 l 563 997 l 643 997 l 861 826 m 88 346 q 229 619 88 538 q 693 701 371 701 q 1110 656 913 701 l 1093 589 q 688 632 910 632 q 285 569 403 632 q 167 346 167 506 q 285 119 167 183 q 688 56 403 56 q 1093 99 910 56 l 1110 31 q 693 -14 919 -14 q 228 69 369 -14 q 88 346 88 151 z "},"Ċ":{"ha":1453,"x_min":89,"x_max":1378,"o":"m 835 1215 l 835 1051 l 757 1051 l 757 1215 l 835 1215 m 300 788 q 235 738 300 788 q 171 474 171 688 q 299 160 171 260 q 733 60 428 60 q 1361 142 1006 60 l 1378 71 q 732 -14 1054 -14 q 245 103 401 -14 q 89 474 89 221 q 245 844 89 726 q 732 961 401 961 q 1378 876 1044 961 l 1361 804 q 733 888 1013 888 q 300 788 429 888 z "},"ċ":{"ha":1200,"x_min":89,"x_max":1111,"o":"m 693 960 l 693 796 l 614 796 l 614 960 l 693 960 m 89 346 q 231 619 89 538 q 694 701 372 701 q 1111 656 914 701 l 1094 589 q 689 632 911 632 q 286 569 404 632 q 168 346 168 506 q 286 119 168 183 q 689 56 404 56 q 1094 99 911 56 l 1111 31 q 694 -14 921 -14 q 230 69 371 -14 q 89 346 89 151 z "},"Č":{"ha":1453,"x_min":89,"x_max":1378,"o":"m 1056 1190 l 838 1019 l 757 1019 l 538 1190 l 626 1190 l 797 1065 l 967 1190 l 1056 1190 m 300 788 q 235 738 300 788 q 171 474 171 688 q 299 160 171 260 q 733 60 428 60 q 1361 142 1006 60 l 1378 71 q 732 -14 1054 -14 q 245 103 401 -14 q 89 474 89 221 q 245 844 89 726 q 732 961 401 961 q 1378 876 1044 961 l 1361 804 q 733 888 1013 888 q 300 788 429 888 z "},"č":{"ha":1200,"x_min":89,"x_max":1111,"o":"m 914 997 l 694 826 l 614 826 l 396 997 l 485 997 l 654 872 l 824 997 l 914 997 m 89 346 q 231 619 89 538 q 694 701 372 701 q 1111 656 914 701 l 1094 589 q 689 632 911 632 q 286 569 404 632 q 168 346 168 506 q 286 119 168 183 q 689 56 404 56 q 1094 99 911 56 l 1111 31 q 694 -14 921 -14 q 230 69 371 -14 q 89 346 89 151 z "},"Ď":{"ha":1554,"x_min":117,"x_max":1465,"o":"m 985 1190 l 765 1019 l 686 1019 l 467 1190 l 556 1190 l 725 1065 l 896 1190 l 985 1190 m 903 0 l 117 0 l 117 947 l 903 947 q 1331 836 1197 947 q 1465 475 1465 725 q 1331 113 1465 225 q 903 0 1197 0 m 199 875 l 199 72 l 899 72 q 1272 167 1161 72 q 1382 475 1382 261 q 1272 783 1382 690 q 899 875 1163 875 l 199 875 z "},"ď":{"ha":1240,"x_min":89,"x_max":1294,"o":"m 1044 1042 l 1124 1042 l 1124 0 l 1056 0 l 1046 129 q 500 -14 743 -14 q 191 72 293 -14 q 89 333 89 157 q 222 615 89 529 q 599 700 356 700 q 1044 658 821 700 l 1044 1042 m 1251 849 l 1251 881 l 1221 881 l 1221 1042 l 1294 1042 l 1294 843 q 1239 790 1294 790 q 1206 797 1219 790 l 1213 836 q 1235 833 1226 833 q 1251 849 1251 833 m 168 336 q 251 122 168 189 q 511 54 335 54 q 1044 188 728 54 l 1044 592 q 592 632 824 632 q 277 563 386 632 q 168 336 168 494 z "},"Đ":{"ha":1585,"x_min":14,"x_max":1496,"o":"m 147 442 l 14 442 l 14 501 l 147 501 l 147 947 l 933 947 q 1362 836 1228 947 q 1496 475 1496 725 q 1362 113 1496 225 q 933 0 1228 0 l 147 0 l 147 442 m 229 443 l 229 72 l 929 72 q 1302 167 1192 72 q 1413 475 1413 261 q 1303 783 1413 690 q 929 875 1193 875 l 229 875 l 229 500 l 688 500 l 688 443 l 229 443 z "},"đ":{"ha":1319,"x_min":89,"x_max":1306,"o":"m 1044 1042 l 1124 1042 l 1124 919 l 1306 919 l 1306 864 l 1124 864 l 1124 0 l 1056 0 l 1046 129 q 500 -14 743 -14 q 191 72 293 -14 q 89 333 89 157 q 222 615 89 529 q 599 700 356 700 q 1044 658 821 700 l 1044 864 l 657 864 l 657 919 l 1044 919 l 1044 1042 m 168 336 q 251 122 168 189 q 511 54 335 54 q 1044 188 728 54 l 1044 592 q 592 632 824 632 q 277 563 386 632 q 168 336 168 494 z "},"Ē":{"ha":1417,"x_min":117,"x_max":1315,"o":"m 1004 1079 l 535 1079 l 535 1140 l 1004 1140 l 1004 1079 m 1315 0 l 117 0 l 117 947 l 1315 947 l 1315 878 l 199 878 l 199 517 l 1288 517 l 1288 454 l 199 454 l 199 69 l 1315 69 l 1315 0 z "},"ē":{"ha":1231,"x_min":89,"x_max":1142,"o":"m 850 886 l 381 886 l 381 947 l 850 947 l 850 886 m 651 53 q 1093 104 888 53 l 1110 39 q 647 -15 893 -15 q 226 65 363 -15 q 89 344 89 146 q 226 618 89 535 q 619 701 363 701 q 1003 625 865 701 q 1142 368 1142 549 q 1136 317 1142 342 l 167 317 q 293 109 176 165 q 651 53 410 53 m 617 639 q 287 578 397 639 q 167 372 176 517 l 1065 372 q 958 575 1058 511 q 617 639 858 639 z "},"Ĕ":{"ha":1417,"x_min":117,"x_max":1315,"o":"m 925 1186 l 992 1186 q 937 1062 992 1108 q 767 1015 882 1015 q 596 1062 651 1015 q 540 1186 540 1108 l 607 1186 q 642 1099 607 1129 q 767 1069 678 1069 q 890 1099 856 1069 q 925 1186 925 1129 m 1315 0 l 117 0 l 117 947 l 1315 947 l 1315 878 l 199 878 l 199 517 l 1288 517 l 1288 454 l 199 454 l 199 69 l 1315 69 l 1315 0 z "},"ĕ":{"ha":1231,"x_min":89,"x_max":1142,"o":"m 775 990 l 842 990 q 787 867 842 914 q 617 821 732 821 q 444 867 500 821 q 389 990 389 914 l 457 990 q 492 904 457 933 q 617 875 528 875 q 740 904 706 875 q 775 990 775 933 m 651 53 q 1093 104 888 53 l 1110 39 q 647 -15 893 -15 q 226 65 363 -15 q 89 344 89 146 q 226 618 89 535 q 619 701 363 701 q 1003 625 865 701 q 1142 368 1142 549 q 1136 317 1142 342 l 167 317 q 293 109 176 165 q 651 53 410 53 m 617 639 q 287 578 397 639 q 167 372 176 517 l 1065 372 q 958 575 1058 511 q 617 639 858 639 z "},"Ė":{"ha":1417,"x_min":117,"x_max":1315,"o":"m 807 1215 l 807 1051 l 729 1051 l 729 1215 l 807 1215 m 1315 0 l 117 0 l 117 947 l 1315 947 l 1315 878 l 199 878 l 199 517 l 1288 517 l 1288 454 l 199 454 l 199 69 l 1315 69 l 1315 0 z "},"ė":{"ha":1231,"x_min":89,"x_max":1142,"o":"m 654 960 l 654 796 l 576 796 l 576 960 l 654 960 m 651 53 q 1093 104 888 53 l 1110 39 q 647 -15 893 -15 q 226 65 363 -15 q 89 344 89 146 q 226 618 89 535 q 619 701 363 701 q 1003 625 865 701 q 1142 368 1142 549 q 1136 317 1142 342 l 167 317 q 293 109 176 165 q 651 53 410 53 m 617 639 q 287 578 397 639 q 167 372 176 517 l 1065 372 q 958 575 1058 511 q 617 639 858 639 z "},"Ę":{"ha":1417,"x_min":117,"x_max":1351,"o":"m 1256 0 l 117 0 l 117 947 l 1315 947 l 1315 878 l 199 878 l 199 517 l 1288 517 l 1288 454 l 199 454 l 199 69 l 1315 69 l 1315 0 l 1314 0 q 1126 -160 1126 -87 q 1188 -201 1126 -201 q 1332 -167 1251 -201 l 1351 -214 q 1182 -257 1271 -257 q 1067 -171 1067 -257 q 1122 -73 1067 -119 q 1256 0 1178 -26 z "},"ę":{"ha":1231,"x_min":89,"x_max":1142,"o":"m 651 53 q 1093 104 888 53 l 1110 39 q 881 -1 1004 14 q 697 -160 697 -89 q 758 -201 697 -201 q 903 -167 822 -201 l 922 -214 q 753 -257 840 -257 q 638 -171 638 -257 q 684 -83 638 -126 q 797 -10 731 -39 q 647 -15 700 -15 q 226 65 363 -15 q 89 344 89 146 q 226 618 89 535 q 619 701 363 701 q 1003 625 865 701 q 1142 368 1142 549 q 1136 317 1142 342 l 167 317 q 293 109 176 165 q 651 53 410 53 m 617 639 q 287 578 397 639 q 167 372 176 517 l 1065 372 q 958 575 1058 511 q 617 639 858 639 z "},"Ě":{"ha":1417,"x_min":117,"x_max":1315,"o":"m 1028 1190 l 808 1019 l 729 1019 l 510 1190 l 599 1190 l 769 1065 l 939 1190 l 1028 1190 m 1315 0 l 117 0 l 117 947 l 1315 947 l 1315 878 l 199 878 l 199 517 l 1288 517 l 1288 454 l 199 454 l 199 69 l 1315 69 l 1315 0 z "},"ě":{"ha":1231,"x_min":89,"x_max":1142,"o":"m 875 997 l 656 826 l 575 826 l 357 997 l 446 997 l 615 872 l 786 997 l 875 997 m 651 53 q 1093 104 888 53 l 1110 39 q 647 -15 893 -15 q 226 65 363 -15 q 89 344 89 146 q 226 618 89 535 q 619 701 363 701 q 1003 625 865 701 q 1142 368 1142 549 q 1136 317 1142 342 l 167 317 q 293 109 176 165 q 651 53 410 53 m 617 639 q 287 578 397 639 q 167 372 176 517 l 1065 372 q 958 575 1058 511 q 617 639 858 639 z "},"Ĝ":{"ha":1493,"x_min":89,"x_max":1390,"o":"m 1075 1019 l 986 1019 l 815 1143 l 646 1019 l 557 1019 l 776 1190 l 856 1190 l 1075 1019 m 249 103 q 169 162 249 103 q 89 474 89 221 q 249 844 89 726 q 750 961 410 961 q 1390 876 1060 961 l 1374 804 q 744 888 1022 888 q 303 787 435 888 q 171 474 171 686 q 302 160 171 260 q 744 60 433 60 q 1307 129 969 60 l 1307 489 l 1390 489 l 1390 71 q 750 -14 1060 -14 q 249 103 410 -14 z "},"ĝ":{"ha":1233,"x_min":89,"x_max":1125,"o":"m 856 814 l 767 814 l 597 939 l 428 814 l 339 814 l 557 985 l 638 985 l 856 814 m 1125 650 l 1125 94 q 1002 -186 1125 -107 q 586 -265 879 -265 q 344 -249 479 -265 q 111 -201 208 -232 l 131 -135 q 590 -199 358 -199 q 948 -136 846 -199 q 1049 85 1050 -74 l 1046 160 q 503 18 760 18 q 191 101 293 18 q 89 357 89 183 q 223 620 89 540 q 604 700 357 700 q 1125 650 850 700 m 168 358 q 250 149 168 214 q 508 83 332 83 q 1046 219 739 83 l 1046 593 q 593 632 815 632 q 278 568 388 632 q 168 358 168 504 z "},"Ğ":{"ha":1493,"x_min":89,"x_max":1390,"o":"m 974 1186 l 1040 1186 q 985 1062 1040 1108 q 815 1015 931 1015 q 644 1062 700 1015 q 589 1186 589 1108 l 656 1186 q 691 1099 656 1129 q 815 1069 726 1069 q 939 1099 904 1069 q 974 1186 974 1129 m 249 103 q 169 162 249 103 q 89 474 89 221 q 249 844 89 726 q 750 961 410 961 q 1390 876 1060 961 l 1374 804 q 744 888 1022 888 q 303 787 435 888 q 171 474 171 686 q 302 160 171 260 q 744 60 433 60 q 1307 129 969 60 l 1307 489 l 1390 489 l 1390 71 q 750 -14 1060 -14 q 249 103 410 -14 z "},"ğ":{"ha":1233,"x_min":89,"x_max":1125,"o":"m 754 979 l 822 979 q 767 855 822 901 q 596 808 713 808 q 425 855 481 808 q 369 979 369 901 l 436 979 q 472 892 436 922 q 596 863 507 863 q 719 892 685 863 q 754 979 754 921 m 1125 650 l 1125 94 q 1002 -186 1125 -107 q 586 -265 879 -265 q 344 -249 479 -265 q 111 -201 208 -232 l 131 -135 q 590 -199 358 -199 q 948 -136 846 -199 q 1049 85 1050 -74 l 1046 160 q 503 18 760 18 q 191 101 293 18 q 89 357 89 183 q 223 620 89 540 q 604 700 357 700 q 1125 650 850 700 m 168 358 q 250 149 168 214 q 508 83 332 83 q 1046 219 739 83 l 1046 593 q 593 632 815 632 q 278 568 388 632 q 168 358 168 504 z "},"Ġ":{"ha":1493,"x_min":89,"x_max":1390,"o":"m 856 1215 l 856 1051 l 778 1051 l 778 1215 l 856 1215 m 249 103 q 169 162 249 103 q 89 474 89 221 q 249 844 89 726 q 750 961 410 961 q 1390 876 1060 961 l 1374 804 q 744 888 1022 888 q 303 787 435 888 q 171 474 171 686 q 302 160 171 260 q 744 60 433 60 q 1307 129 969 60 l 1307 489 l 1390 489 l 1390 71 q 750 -14 1060 -14 q 249 103 410 -14 z "},"ġ":{"ha":1233,"x_min":89,"x_max":1125,"o":"m 638 947 l 638 783 l 558 783 l 558 947 l 638 947 m 1125 650 l 1125 94 q 1002 -186 1125 -107 q 586 -265 879 -265 q 344 -249 479 -265 q 111 -201 208 -232 l 131 -135 q 590 -199 358 -199 q 948 -136 846 -199 q 1049 85 1050 -74 l 1046 160 q 503 18 760 18 q 191 101 293 18 q 89 357 89 183 q 223 620 89 540 q 604 700 357 700 q 1125 650 850 700 m 168 358 q 250 149 168 214 q 508 83 332 83 q 1046 219 739 83 l 1046 593 q 593 632 815 632 q 278 568 388 632 q 168 358 168 504 z "},"Ģ":{"ha":1493,"x_min":89,"x_max":1390,"o":"m 249 103 q 169 162 249 103 q 89 474 89 221 q 249 844 89 726 q 750 961 410 961 q 1390 876 1060 961 l 1374 804 q 744 888 1022 888 q 303 787 435 888 q 171 474 171 686 q 302 160 171 260 q 744 60 433 60 q 1307 129 969 60 l 1307 489 l 1390 489 l 1390 71 q 750 -14 1060 -14 q 249 103 410 -14 m 789 -86 l 885 -86 l 747 -257 l 674 -257 l 789 -86 z "},"ģ":{"ha":1233,"x_min":89,"x_max":1125,"o":"m 622 826 l 515 826 l 657 997 l 738 997 l 622 826 m 1125 650 l 1125 94 q 1002 -186 1125 -107 q 586 -265 879 -265 q 344 -249 479 -265 q 111 -201 208 -232 l 131 -135 q 590 -199 358 -199 q 948 -136 846 -199 q 1049 85 1050 -74 l 1046 160 q 503 18 760 18 q 191 101 293 18 q 89 357 89 183 q 223 620 89 540 q 604 700 357 700 q 1125 650 850 700 m 168 358 q 250 149 168 214 q 508 83 332 83 q 1046 219 739 83 l 1046 593 q 593 632 815 632 q 278 568 388 632 q 168 358 168 504 z "},"Ĥ":{"ha":1469,"x_min":117,"x_max":1353,"o":"m 994 1019 l 904 1019 l 735 1143 l 565 1019 l 476 1019 l 694 1190 l 775 1190 l 994 1019 m 199 0 l 117 0 l 117 947 l 199 947 l 199 533 l 1271 533 l 1271 947 l 1353 947 l 1353 0 l 1271 0 l 1271 460 l 199 460 l 199 0 z "},"ĥ":{"ha":1218,"x_min":111,"x_max":1111,"o":"m 629 1090 l 540 1090 l 371 1215 l 201 1090 l 111 1090 l 331 1261 l 411 1261 l 629 1090 m 117 0 l 117 1042 l 196 1042 l 196 583 q 714 701 472 701 q 1111 367 1111 701 l 1111 0 l 1032 0 l 1032 365 q 951 564 1032 496 q 689 632 871 632 q 196 521 474 632 l 196 0 l 117 0 z "},"Ħ":{"ha":1507,"x_min":21,"x_max":1486,"o":"m 136 693 l 21 693 l 21 754 l 136 754 l 136 947 l 218 947 l 218 753 l 1290 753 l 1290 947 l 1372 947 l 1372 754 l 1486 754 l 1486 693 l 1372 693 l 1372 0 l 1290 0 l 1290 451 l 218 451 l 218 0 l 136 0 l 136 693 m 218 694 l 218 521 l 1290 521 l 1290 694 l 218 694 z "},"ħ":{"ha":1300,"x_min":14,"x_max":1192,"o":"m 197 0 l 197 864 l 14 864 l 14 919 l 197 919 l 197 1042 l 276 1042 l 276 919 l 708 919 l 708 864 l 276 864 l 276 583 q 794 701 556 701 q 1192 367 1192 701 l 1192 0 l 1113 0 l 1113 365 q 1033 564 1113 496 q 769 632 953 632 q 276 519 553 632 l 276 0 l 197 0 z "},"Ĩ":{"ha":315,"x_min":-79,"x_max":399,"o":"m -79 1028 l -79 1085 q 43 1131 -19 1131 q 178 1109 96 1131 q 293 1088 261 1088 q 399 1125 338 1088 l 399 1067 q 296 1031 350 1031 q 174 1053 260 1031 q 44 1075 88 1075 q -79 1028 -12 1075 m 199 0 l 117 0 l 117 947 l 199 947 l 199 0 z "},"ĩ":{"ha":310,"x_min":-75,"x_max":401,"o":"m -75 835 l -75 892 q 46 938 -21 938 q 182 917 100 938 q 297 896 264 896 q 401 932 342 896 l 401 875 q 300 838 354 838 q 177 860 264 838 q 49 883 90 883 q -75 835 -12 883 m 117 0 l 117 686 l 196 686 l 196 0 l 117 0 z "},"Ī":{"ha":315,"x_min":-76,"x_max":394,"o":"m 394 1079 l -76 1079 l -76 1139 l 394 1139 l 394 1079 m 199 0 l 117 0 l 117 947 l 199 947 l 199 0 z "},"ī":{"ha":310,"x_min":-79,"x_max":392,"o":"m 392 886 l -79 886 l -79 947 l 392 947 l 392 886 m 117 0 l 117 686 l 196 686 l 196 0 l 117 0 z "},"Ĭ":{"ha":315,"x_min":-71,"x_max":382,"o":"m 314 1186 l 382 1186 q 327 1062 382 1108 q 156 1015 272 1015 q -15 1062 40 1015 q -71 1186 -71 1108 l -4 1186 q 31 1099 -4 1129 q 156 1069 67 1069 q 279 1099 244 1069 q 314 1186 314 1128 m 199 0 l 117 0 l 117 947 l 199 947 l 199 0 z "},"ĭ":{"ha":310,"x_min":-69,"x_max":382,"o":"m 315 990 l 382 990 q 327 867 382 914 q 157 821 272 821 q -14 867 42 821 q -69 990 -69 914 l -3 990 q 33 904 -3 933 q 157 875 68 875 q 281 904 246 875 q 315 990 315 933 m 117 0 l 117 686 l 196 686 l 196 0 l 117 0 z "},"Į":{"ha":315,"x_min":-49,"x_max":238,"o":"m 140 0 l 117 0 l 117 947 l 199 947 l 199 0 q 13 -160 13 -87 q 74 -201 13 -201 q 218 -167 135 -201 l 238 -214 q 68 -257 156 -257 q -49 -171 -49 -257 q 7 -73 -49 -119 q 140 0 63 -26 z "},"į":{"ha":313,"x_min":-51,"x_max":233,"o":"m 196 958 l 196 794 l 117 794 l 117 958 l 196 958 m 117 0 l 117 686 l 196 686 l 196 0 q 8 -160 8 -89 q 69 -201 8 -201 q 215 -167 132 -201 l 233 -214 q 64 -257 153 -257 q -51 -171 -51 -257 q 3 -76 -51 -122 q 132 0 57 -29 l 117 0 z "},"İ":{"ha":315,"x_min":117,"x_max":199,"o":"m 197 1215 l 197 1050 l 118 1050 l 118 1215 l 197 1215 m 199 0 l 117 0 l 117 947 l 199 947 l 199 0 z "},"ı":{"ha":310,"x_min":117,"x_max":196,"o":"m 117 0 l 117 686 l 196 686 l 196 0 l 117 0 z "},"Ĳ":{"ha":1058,"x_min":117,"x_max":957,"o":"m 429 51 q 779 122 683 51 q 875 371 875 192 l 875 947 l 957 947 l 957 371 q 840 71 957 163 q 431 -21 722 -21 q 129 21 250 -21 l 149 90 q 429 51 275 51 m 199 288 l 117 288 l 117 911 l 199 911 l 199 288 z "},"ĳ":{"ha":792,"x_min":117,"x_max":521,"o":"m 196 958 l 196 794 l 117 794 l 117 958 l 196 958 m 521 958 l 521 794 l 442 794 l 442 958 l 521 958 m 117 0 l 117 686 l 196 686 l 196 0 l 117 0 m 397 -250 l 307 -250 q 406 -91 371 -169 q 442 97 442 -12 l 442 686 l 521 686 l 521 96 q 501 -56 521 14 q 458 -164 481 -126 q 397 -250 435 -201 z "},"Ĵ":{"ha":932,"x_min":1,"x_max":1046,"o":"m 1046 1019 l 957 1019 l 786 1143 l 617 1019 l 528 1019 l 746 1190 l 826 1190 l 1046 1019 m 301 51 q 651 122 556 51 q 747 371 747 192 l 747 947 l 829 947 l 829 371 q 712 71 829 163 q 303 -21 594 -21 q 1 21 122 -21 l 21 90 q 301 51 147 51 z "},"ĵ":{"ha":344,"x_min":-64,"x_max":454,"o":"m 454 826 l 365 826 l 196 950 l 26 826 l -64 826 l 156 997 l 236 997 l 454 826 m 72 -250 l -18 -250 q 81 -91 46 -169 q 117 97 117 -12 l 117 686 l 196 686 l 196 96 q 176 -56 196 14 q 133 -164 156 -126 q 72 -250 110 -201 z "},"Ķ":{"ha":1399,"x_min":117,"x_max":1296,"o":"m 199 0 l 117 0 l 117 947 l 199 947 l 199 372 l 497 557 l 1154 947 l 1281 947 l 657 568 l 1296 0 l 1185 0 l 586 526 l 199 293 l 199 0 m 644 -86 l 740 -86 l 603 -257 l 529 -257 l 644 -86 z "},"ķ":{"ha":1089,"x_min":117,"x_max":1082,"o":"m 196 1042 l 196 408 l 481 408 l 944 686 l 1065 686 l 549 369 l 1082 0 l 964 0 l 469 339 l 196 339 l 196 0 l 117 0 l 117 1042 l 196 1042 m 511 -86 l 607 -86 l 469 -257 l 396 -257 l 511 -86 z "},"Ĺ":{"ha":1336,"x_min":117,"x_max":1308,"o":"m 310 1189 l 422 1189 l 204 1019 l 118 1019 l 310 1189 m 199 72 l 1308 72 l 1308 0 l 117 0 l 117 947 l 199 947 l 199 72 z "},"ĺ":{"ha":313,"x_min":115,"x_max":421,"o":"m 308 1249 l 421 1249 l 201 1078 l 115 1078 l 308 1249 m 196 1042 l 196 0 l 117 0 l 117 1042 l 196 1042 z "},"Ļ":{"ha":1336,"x_min":117,"x_max":1308,"o":"m 199 72 l 1308 72 l 1308 0 l 117 0 l 117 947 l 199 947 l 199 72 m 669 -86 l 767 -86 l 628 -257 l 556 -257 l 669 -86 z "},"ļ":{"ha":313,"x_min":-19,"x_max":196,"o":"m 196 1042 l 196 0 l 117 0 l 117 1042 l 196 1042 m 96 -86 l 192 -86 l 54 -257 l -19 -257 l 96 -86 z "},"Ľ":{"ha":1336,"x_min":117,"x_max":1308,"o":"m 199 72 l 1308 72 l 1308 0 l 117 0 l 117 947 l 199 947 l 199 72 m 604 754 l 604 786 l 574 786 l 574 947 l 647 947 l 647 749 q 590 696 647 696 q 557 703 574 696 l 565 742 q 586 739 579 739 q 604 754 604 739 z "},"ľ":{"ha":313,"x_min":117,"x_max":365,"o":"m 196 1042 l 196 0 l 117 0 l 117 1042 l 196 1042 m 322 849 l 322 881 l 292 881 l 292 1042 l 365 1042 l 365 843 q 310 790 365 790 q 276 797 290 790 l 283 836 q 306 833 297 833 q 322 849 322 833 z "},"Ŀ":{"ha":1336,"x_min":117,"x_max":1308,"o":"m 199 72 l 1308 72 l 1308 0 l 117 0 l 117 947 l 199 947 l 199 72 m 818 621 l 818 428 l 738 428 l 738 621 l 818 621 z "},"ŀ":{"ha":354,"x_min":117,"x_max":375,"o":"m 196 1042 l 196 0 l 117 0 l 117 1042 l 196 1042 m 375 554 l 375 390 l 296 390 l 296 554 l 375 554 z "},"Ł":{"ha":1417,"x_min":14,"x_max":1389,"o":"m 279 72 l 1389 72 l 1389 0 l 197 0 l 197 346 l 14 264 l 14 329 l 197 410 l 197 947 l 279 947 l 279 446 l 846 697 l 846 633 l 279 382 l 279 72 z "},"ł":{"ha":397,"x_min":14,"x_max":383,"o":"m 160 425 l 14 360 l 14 422 l 160 489 l 160 1042 l 239 1042 l 239 522 l 383 588 l 383 524 l 239 460 l 239 0 l 160 0 l 160 425 z "},"Ń":{"ha":1504,"x_min":117,"x_max":1388,"o":"m 889 1190 l 1000 1190 l 782 1019 l 696 1019 l 889 1190 m 199 0 l 117 0 l 117 947 l 214 947 l 1306 88 l 1306 947 l 1388 947 l 1388 0 l 1290 0 l 199 863 l 199 0 z "},"ń":{"ha":1218,"x_min":117,"x_max":1111,"o":"m 774 997 l 886 997 l 665 826 l 579 826 l 774 997 m 117 0 l 117 686 l 185 686 l 193 579 q 713 701 469 701 q 1111 367 1111 701 l 1111 0 l 1032 0 l 1032 365 q 951 564 1032 496 q 689 632 871 632 q 196 521 474 632 l 196 0 l 117 0 z "},"Ņ":{"ha":1504,"x_min":117,"x_max":1388,"o":"m 199 0 l 117 0 l 117 947 l 214 947 l 1306 88 l 1306 947 l 1388 947 l 1388 0 l 1290 0 l 199 863 l 199 0 m 708 -86 l 804 -86 l 665 -257 l 593 -257 l 708 -86 z "},"ņ":{"ha":1218,"x_min":117,"x_max":1111,"o":"m 117 0 l 117 686 l 185 686 l 193 579 q 713 701 469 701 q 1111 367 1111 701 l 1111 0 l 1032 0 l 1032 365 q 951 564 1032 496 q 689 632 871 632 q 196 521 474 632 l 196 0 l 117 0 m 617 -86 l 713 -86 l 575 -257 l 501 -257 l 617 -86 z "},"Ň":{"ha":1504,"x_min":117,"x_max":1388,"o":"m 996 1190 l 778 1019 l 697 1019 l 478 1190 l 567 1190 l 738 1065 l 907 1190 l 996 1190 m 199 0 l 117 0 l 117 947 l 214 947 l 1306 88 l 1306 947 l 1388 947 l 1388 0 l 1290 0 l 199 863 l 199 0 z "},"ň":{"ha":1218,"x_min":117,"x_max":1111,"o":"m 879 997 l 660 826 l 579 826 l 361 997 l 450 997 l 619 872 l 789 997 l 879 997 m 117 0 l 117 686 l 185 686 l 193 579 q 713 701 469 701 q 1111 367 1111 701 l 1111 0 l 1032 0 l 1032 365 q 951 564 1032 496 q 689 632 871 632 q 196 521 474 632 l 196 0 l 117 0 z "},"Ō":{"ha":1625,"x_min":89,"x_max":1536,"o":"m 1050 1079 l 579 1079 l 579 1140 l 1050 1140 l 1050 1079 m 1360 101 q 1272 43 1360 101 q 813 -15 1183 -15 q 265 101 442 -15 q 89 474 89 218 q 265 846 89 729 q 813 963 442 963 q 1360 846 1183 963 q 1536 474 1536 729 q 1360 101 1536 218 m 319 160 q 393 110 319 160 q 813 60 467 60 q 1306 160 1158 60 q 1453 474 1453 260 q 1306 788 1453 688 q 813 888 1158 888 q 319 788 467 888 q 171 474 171 688 q 319 160 171 260 z "},"ō":{"ha":1322,"x_min":89,"x_max":1233,"o":"m 897 874 l 426 874 l 426 935 l 897 935 l 897 874 m 226 72 q 158 114 226 72 q 89 343 89 157 q 227 615 89 529 q 661 701 365 701 q 1095 615 957 701 q 1233 343 1233 529 q 1096 72 1233 157 q 661 -14 958 -14 q 226 72 364 -14 m 282 565 q 225 531 282 565 q 168 343 168 497 q 282 122 168 189 q 661 56 396 56 q 1040 122 926 56 q 1154 343 1154 189 q 1040 565 1154 497 q 661 632 926 632 q 282 565 396 632 z "},"Ŏ":{"ha":1625,"x_min":89,"x_max":1536,"o":"m 971 1186 l 1038 1186 q 983 1062 1038 1108 q 813 1015 928 1015 q 640 1062 696 1015 q 585 1186 585 1108 l 653 1186 q 688 1099 653 1129 q 813 1069 724 1069 q 936 1099 901 1069 q 971 1186 971 1129 m 1360 101 q 1272 43 1360 101 q 813 -15 1183 -15 q 265 101 442 -15 q 89 474 89 218 q 265 846 89 729 q 813 963 442 963 q 1360 846 1183 963 q 1536 474 1536 729 q 1360 101 1536 218 m 319 160 q 393 110 319 160 q 813 60 467 60 q 1306 160 1158 60 q 1453 474 1453 260 q 1306 788 1453 688 q 813 888 1158 888 q 319 788 467 888 q 171 474 171 688 q 319 160 171 260 z "},"ŏ":{"ha":1322,"x_min":89,"x_max":1233,"o":"m 821 990 l 888 990 q 833 867 888 914 q 663 821 778 821 q 492 867 547 821 q 436 990 436 914 l 503 990 q 538 904 503 933 q 663 875 574 875 q 786 904 751 875 q 821 990 821 933 m 226 72 q 158 114 226 72 q 89 343 89 157 q 227 615 89 529 q 661 701 365 701 q 1095 615 957 701 q 1233 343 1233 529 q 1096 72 1233 157 q 661 -14 958 -14 q 226 72 364 -14 m 282 565 q 225 531 282 565 q 168 343 168 497 q 282 122 168 189 q 661 56 396 56 q 1040 122 926 56 q 1154 343 1154 189 q 1040 565 1154 497 q 661 632 926 632 q 282 565 396 632 z "},"Ő":{"ha":1625,"x_min":89,"x_max":1536,"o":"m 785 1190 l 883 1190 l 703 1019 l 631 1019 l 785 1190 m 1044 1190 l 1143 1190 l 958 1019 l 885 1019 l 1044 1190 m 1360 101 q 1272 43 1360 101 q 813 -15 1183 -15 q 265 101 442 -15 q 89 474 89 218 q 265 846 89 729 q 813 963 442 963 q 1360 846 1183 963 q 1536 474 1536 729 q 1360 101 1536 218 m 319 160 q 393 110 319 160 q 813 60 467 60 q 1306 160 1158 60 q 1453 474 1453 260 q 1306 788 1453 688 q 813 888 1158 888 q 319 788 467 888 q 171 474 171 688 q 319 160 171 260 z "},"ő":{"ha":1322,"x_min":89,"x_max":1233,"o":"m 644 997 l 743 997 l 564 826 l 490 826 l 644 997 m 904 997 l 1003 997 l 818 826 l 744 826 l 904 997 m 226 72 q 158 114 226 72 q 89 343 89 157 q 227 615 89 529 q 661 701 365 701 q 1095 615 957 701 q 1233 343 1233 529 q 1096 72 1233 157 q 661 -14 958 -14 q 226 72 364 -14 m 282 565 q 225 531 282 565 q 168 343 168 497 q 282 122 168 189 q 661 56 396 56 q 1040 122 926 56 q 1154 343 1154 189 q 1040 565 1154 497 q 661 632 926 632 q 282 565 396 632 z "},"Œ":{"ha":2494,"x_min":89,"x_max":2392,"o":"m 265 101 q 177 160 265 101 q 89 474 89 218 q 265 846 89 729 q 813 963 442 963 q 1053 947 939 963 l 2392 947 l 2392 878 l 1263 878 q 1533 517 1521 788 l 2364 517 l 2364 454 l 1535 454 q 1263 69 1533 163 l 2392 69 l 2392 0 l 1053 0 q 813 -15 939 -15 q 265 101 442 -15 m 319 788 q 245 738 319 788 q 171 474 171 688 q 319 160 171 260 q 813 60 467 60 q 1306 160 1158 60 q 1453 474 1453 260 q 1306 788 1453 688 q 813 888 1158 888 q 319 788 467 888 z "},"œ":{"ha":2296,"x_min":89,"x_max":2207,"o":"m 226 72 q 158 114 226 72 q 89 343 89 157 q 227 615 89 529 q 661 701 365 701 q 1194 514 1090 701 q 1686 701 1294 701 q 2069 625 1931 701 q 2207 368 2207 549 q 2203 317 2207 336 l 1233 317 q 1359 109 1243 165 q 1717 53 1475 53 q 2158 104 1957 53 l 2175 39 q 1713 -15 1958 -15 q 1373 28 1500 -15 q 1193 171 1246 71 q 661 -14 1089 -14 q 226 72 364 -14 m 1683 639 q 1353 578 1464 639 q 1233 372 1243 517 l 2131 372 q 2024 575 2124 511 q 1683 639 1924 639 m 282 565 q 225 531 282 565 q 168 343 168 497 q 282 122 168 189 q 661 56 396 56 q 1040 122 926 56 q 1154 343 1154 189 q 1040 565 1154 497 q 661 632 926 632 q 282 565 396 632 z "},"Ŕ":{"ha":1443,"x_min":117,"x_max":1336,"o":"m 803 1190 l 914 1190 l 696 1019 l 610 1019 l 803 1190 m 199 0 l 117 0 l 117 947 l 997 947 q 1253 876 1171 947 q 1336 654 1336 804 q 1256 435 1336 507 q 1007 361 1176 363 l 868 361 l 960 290 l 1307 0 l 1199 0 l 771 358 l 199 358 l 199 0 m 199 875 l 199 426 l 999 426 q 1193 478 1133 426 q 1253 650 1253 531 q 1193 822 1253 769 q 999 875 1133 875 l 199 875 z "},"ŕ":{"ha":799,"x_min":117,"x_max":726,"o":"m 607 997 l 719 997 l 499 826 l 411 826 l 607 997 m 117 0 l 117 686 l 185 686 l 194 528 q 726 701 456 701 l 726 629 q 196 468 460 629 l 196 0 l 117 0 z "},"Ŗ":{"ha":1443,"x_min":117,"x_max":1336,"o":"m 199 0 l 117 0 l 117 947 l 997 947 q 1253 876 1171 947 q 1336 654 1336 804 q 1256 435 1336 507 q 1007 361 1176 363 l 868 361 l 960 290 l 1307 0 l 1199 0 l 771 358 l 199 358 l 199 0 m 199 875 l 199 426 l 999 426 q 1193 478 1133 426 q 1253 650 1253 531 q 1193 822 1253 769 q 999 875 1133 875 l 199 875 m 607 -86 l 703 -86 l 565 -257 l 492 -257 l 607 -86 z "},"ŗ":{"ha":799,"x_min":-15,"x_max":726,"o":"m 117 0 l 117 686 l 185 686 l 194 528 q 726 701 456 701 l 726 629 q 196 468 460 629 l 196 0 l 117 0 m 100 -86 l 197 -86 l 58 -257 l -15 -257 l 100 -86 z "},"Ř":{"ha":1443,"x_min":117,"x_max":1336,"o":"m 910 1190 l 692 1019 l 611 1019 l 392 1190 l 481 1190 l 651 1065 l 821 1190 l 910 1190 m 199 0 l 117 0 l 117 947 l 997 947 q 1253 876 1171 947 q 1336 654 1336 804 q 1256 435 1336 507 q 1007 361 1176 363 l 868 361 l 960 290 l 1307 0 l 1199 0 l 771 358 l 199 358 l 199 0 m 199 875 l 199 426 l 999 426 q 1193 478 1133 426 q 1253 650 1253 531 q 1193 822 1253 769 q 999 875 1133 875 l 199 875 z "},"ř":{"ha":799,"x_min":117,"x_max":726,"o":"m 711 997 l 493 826 l 413 826 l 193 997 l 283 997 l 453 872 l 622 997 l 711 997 m 117 0 l 117 686 l 185 686 l 194 528 q 726 701 456 701 l 726 629 q 196 468 460 629 l 196 0 l 117 0 z "},"Ś":{"ha":1385,"x_min":90,"x_max":1294,"o":"m 818 1190 l 929 1190 l 711 1019 l 625 1019 l 818 1190 m 1294 238 q 1245 90 1294 143 q 1072 12 1196 38 q 724 -14 947 -14 q 399 3 575 -14 q 104 46 224 21 l 117 117 q 422 74 242 92 q 736 56 601 56 q 1040 75 936 56 q 1180 132 1144 94 q 1215 239 1215 169 q 1163 370 1215 336 q 978 421 1110 404 l 425 481 q 172 546 253 499 q 90 713 90 593 q 211 906 90 850 q 644 961 332 961 q 960 944 786 961 q 1254 901 1135 926 l 1242 833 q 943 874 1122 857 q 633 892 764 892 q 341 873 442 892 q 205 818 240 854 q 169 714 169 782 q 228 597 169 629 q 422 550 286 565 l 954 493 q 1068 478 1024 486 q 1160 452 1113 469 q 1233 409 1207 435 q 1277 340 1260 383 q 1294 238 1294 297 z "},"ś":{"ha":1114,"x_min":89,"x_max":1028,"o":"m 711 997 l 822 997 l 601 826 l 515 826 l 711 997 m 1028 169 q 935 24 1028 64 q 593 -15 842 -15 q 104 28 349 -15 l 117 88 q 575 47 363 47 q 875 71 799 47 q 951 171 951 94 q 888 270 951 244 q 657 308 825 296 l 363 328 q 156 376 222 339 q 89 513 89 413 q 199 663 89 624 q 560 701 308 701 q 971 669 760 701 l 958 610 q 549 640 735 640 q 247 615 331 640 q 164 514 164 589 q 178 454 164 478 q 224 418 192 431 q 285 401 256 406 q 369 392 315 396 l 689 369 q 949 314 871 356 q 1028 169 1028 272 z "},"Ŝ":{"ha":1385,"x_min":90,"x_max":1294,"o":"m 924 1019 l 835 1019 l 665 1143 l 494 1019 l 406 1019 l 625 1190 l 706 1190 l 924 1019 m 1294 238 q 1245 90 1294 143 q 1072 12 1196 38 q 724 -14 947 -14 q 399 3 575 -14 q 104 46 224 21 l 117 117 q 422 74 242 92 q 736 56 601 56 q 1040 75 936 56 q 1180 132 1144 94 q 1215 239 1215 169 q 1163 370 1215 336 q 978 421 1110 404 l 425 481 q 172 546 253 499 q 90 713 90 593 q 211 906 90 850 q 644 961 332 961 q 960 944 786 961 q 1254 901 1135 926 l 1242 833 q 943 874 1122 857 q 633 892 764 892 q 341 873 442 892 q 205 818 240 854 q 169 714 169 782 q 228 597 169 629 q 422 550 286 565 l 954 493 q 1068 478 1024 486 q 1160 452 1113 469 q 1233 409 1207 435 q 1277 340 1260 383 q 1294 238 1294 297 z "},"ŝ":{"ha":1114,"x_min":89,"x_max":1028,"o":"m 815 826 l 726 826 l 556 950 l 386 826 l 297 826 l 515 997 l 596 997 l 815 826 m 1028 169 q 935 24 1028 64 q 593 -15 842 -15 q 104 28 349 -15 l 117 88 q 575 47 363 47 q 875 71 799 47 q 951 171 951 94 q 888 270 951 244 q 657 308 825 296 l 363 328 q 156 376 222 339 q 89 513 89 413 q 199 663 89 624 q 560 701 308 701 q 971 669 760 701 l 958 610 q 549 640 735 640 q 247 615 331 640 q 164 514 164 589 q 178 454 164 478 q 224 418 192 431 q 285 401 256 406 q 369 392 315 396 l 689 369 q 949 314 871 356 q 1028 169 1028 272 z "},"Ş":{"ha":1385,"x_min":90,"x_max":1294,"o":"m 1294 238 q 1245 90 1294 143 q 1072 12 1196 38 q 724 -14 947 -14 q 399 3 575 -14 q 104 46 224 21 l 117 117 q 422 74 242 92 q 736 56 601 56 q 1040 75 936 56 q 1180 132 1144 94 q 1215 239 1215 169 q 1163 370 1215 336 q 978 421 1110 404 l 425 481 q 172 546 253 499 q 90 713 90 593 q 211 906 90 850 q 644 961 332 961 q 960 944 786 961 q 1254 901 1135 926 l 1242 833 q 943 874 1122 857 q 633 892 764 892 q 341 873 442 892 q 205 818 240 854 q 169 714 169 782 q 228 597 169 629 q 422 550 286 565 l 954 493 q 1068 478 1024 486 q 1160 452 1113 469 q 1233 409 1207 435 q 1277 340 1260 383 q 1294 238 1294 297 m 672 -82 l 733 -82 l 733 -121 q 695 -231 733 -196 q 563 -267 657 -267 q 438 -251 499 -267 l 450 -196 q 564 -210 503 -210 q 647 -190 622 -210 q 672 -121 672 -169 l 672 -82 z "},"ş":{"ha":1114,"x_min":89,"x_max":1028,"o":"m 1028 169 q 935 24 1028 64 q 593 -15 842 -15 q 104 28 349 -15 l 117 88 q 575 47 363 47 q 875 71 799 47 q 951 171 951 94 q 888 270 951 244 q 657 308 825 296 l 363 328 q 156 376 222 339 q 89 513 89 413 q 199 663 89 624 q 560 701 308 701 q 971 669 760 701 l 958 610 q 549 640 735 640 q 247 615 331 640 q 164 514 164 589 q 178 454 164 478 q 224 418 192 431 q 285 401 256 406 q 369 392 315 396 l 689 369 q 949 314 871 356 q 1028 169 1028 272 m 633 -68 l 694 -68 l 694 -107 q 656 -217 694 -182 q 522 -253 617 -253 q 397 -237 461 -253 l 410 -182 q 525 -196 465 -196 q 608 -176 583 -196 q 633 -107 633 -156 l 633 -68 z "},"Š":{"ha":1385,"x_min":90,"x_max":1294,"o":"m 925 1190 l 707 1019 l 626 1019 l 407 1190 l 496 1190 l 667 1065 l 836 1190 l 925 1190 m 1294 238 q 1245 90 1294 143 q 1072 12 1196 38 q 724 -14 947 -14 q 399 3 575 -14 q 104 46 224 21 l 117 117 q 422 74 242 92 q 736 56 601 56 q 1040 75 936 56 q 1180 132 1144 94 q 1215 239 1215 169 q 1163 370 1215 336 q 978 421 1110 404 l 425 481 q 172 546 253 499 q 90 713 90 593 q 211 906 90 850 q 644 961 332 961 q 960 944 786 961 q 1254 901 1135 926 l 1242 833 q 943 874 1122 857 q 633 892 764 892 q 341 873 442 892 q 205 818 240 854 q 169 714 169 782 q 228 597 169 629 q 422 550 286 565 l 954 493 q 1068 478 1024 486 q 1160 452 1113 469 q 1233 409 1207 435 q 1277 340 1260 383 q 1294 238 1294 297 z "},"š":{"ha":1114,"x_min":89,"x_max":1028,"o":"m 815 997 l 596 826 l 515 826 l 297 997 l 386 997 l 556 872 l 726 997 l 815 997 m 1028 169 q 935 24 1028 64 q 593 -15 842 -15 q 104 28 349 -15 l 117 88 q 575 47 363 47 q 875 71 799 47 q 951 171 951 94 q 888 270 951 244 q 657 308 825 296 l 363 328 q 156 376 222 339 q 89 513 89 413 q 199 663 89 624 q 560 701 308 701 q 971 669 760 701 l 958 610 q 549 640 735 640 q 247 615 331 640 q 164 514 164 589 q 178 454 164 478 q 224 418 192 431 q 285 401 256 406 q 369 392 315 396 l 689 369 q 949 314 871 356 q 1028 169 1028 272 z "},"Ţ":{"ha":1364,"x_min":63,"x_max":1301,"o":"m 642 875 l 63 875 l 63 947 l 1301 947 l 1301 875 l 724 875 l 724 0 l 642 0 l 642 875 m 661 -68 l 722 -68 l 722 -107 q 683 -217 722 -182 q 550 -253 644 -253 q 425 -237 489 -253 l 438 -182 q 553 -196 493 -196 q 636 -176 611 -196 q 661 -107 661 -156 l 661 -68 z "},"ţ":{"ha":983,"x_min":25,"x_max":935,"o":"m 210 353 l 210 618 l 25 618 l 25 686 l 211 686 l 225 860 l 289 860 l 289 686 l 901 686 l 901 618 l 289 618 l 289 354 q 356 120 289 186 q 603 54 422 54 q 918 96 743 54 l 935 29 q 599 -15 757 -15 q 297 67 383 -15 q 210 353 210 150 m 582 -68 l 643 -68 l 643 -107 q 604 -217 643 -182 q 471 -253 565 -253 q 346 -237 410 -253 l 358 -182 q 474 -196 414 -196 q 557 -176 532 -196 q 582 -107 582 -156 l 582 -68 z "},"Ť":{"ha":1364,"x_min":63,"x_max":1301,"o":"m 942 1190 l 724 1019 l 643 1019 l 424 1190 l 514 1190 l 683 1065 l 853 1190 l 942 1190 m 642 875 l 63 875 l 63 947 l 1301 947 l 1301 875 l 724 875 l 724 0 l 642 0 l 642 875 z "},"ť":{"ha":983,"x_min":25,"x_max":935,"o":"m 514 874 l 514 904 l 483 904 l 483 1067 l 557 1067 l 557 867 q 501 815 557 815 q 468 821 485 815 l 475 860 q 497 857 489 857 q 514 874 514 857 m 210 353 l 210 618 l 25 618 l 25 686 l 211 686 l 225 860 l 289 860 l 289 686 l 901 686 l 901 618 l 289 618 l 289 354 q 356 120 289 186 q 603 54 422 54 q 918 96 743 54 l 935 29 q 599 -15 757 -15 q 297 67 383 -15 q 210 353 210 150 z "},"Ŧ":{"ha":1364,"x_min":63,"x_max":1301,"o":"m 642 875 l 63 875 l 63 947 l 1301 947 l 1301 875 l 724 875 l 724 486 l 1092 486 l 1092 426 l 724 426 l 724 0 l 642 0 l 642 426 l 274 426 l 274 486 l 642 486 l 642 875 z "},"ŧ":{"ha":1039,"x_min":56,"x_max":965,"o":"m 932 331 l 319 331 q 390 112 322 174 q 633 50 457 50 q 950 90 781 50 l 965 29 q 629 -15 788 -15 q 332 63 419 -15 q 240 331 244 142 l 56 331 l 56 388 l 240 388 l 240 629 l 56 629 l 56 686 l 242 686 l 256 860 l 319 860 l 319 686 l 932 686 l 932 629 l 319 629 l 319 388 l 932 388 l 932 331 z "},"Ũ":{"ha":1475,"x_min":103,"x_max":1372,"o":"m 501 1028 l 501 1085 q 624 1131 561 1131 q 759 1109 676 1131 q 874 1088 842 1088 q 978 1125 917 1088 l 978 1067 q 876 1031 929 1031 q 754 1053 840 1031 q 625 1075 668 1075 q 501 1028 568 1075 m 1290 488 l 1290 947 l 1372 947 l 1372 478 q 1208 110 1372 233 q 738 -14 1043 -14 q 268 110 433 -14 q 103 478 103 233 l 103 947 l 185 947 l 185 488 q 322 165 185 271 q 738 58 458 58 q 1154 165 1018 58 q 1290 488 1290 271 z "},"ũ":{"ha":1229,"x_min":108,"x_max":1114,"o":"m 433 835 l 433 892 q 554 938 488 938 q 690 917 608 938 q 806 896 772 896 q 910 932 850 896 l 910 875 q 808 838 863 838 q 685 860 772 838 q 557 883 599 883 q 433 835 497 883 m 108 319 l 108 686 l 186 686 l 186 321 q 269 122 186 190 q 542 54 353 54 q 1036 174 750 54 l 1036 686 l 1114 686 l 1114 0 l 1047 0 l 1038 113 q 518 -15 746 -15 q 108 319 108 -15 z "},"Ū":{"ha":1475,"x_min":103,"x_max":1372,"o":"m 974 1079 l 504 1079 l 504 1139 l 974 1139 l 974 1079 m 1290 488 l 1290 947 l 1372 947 l 1372 478 q 1208 110 1372 233 q 738 -14 1043 -14 q 268 110 433 -14 q 103 478 103 233 l 103 947 l 185 947 l 185 488 q 322 165 185 271 q 738 58 458 58 q 1154 165 1018 58 q 1290 488 1290 271 z "},"ū":{"ha":1229,"x_min":108,"x_max":1114,"o":"m 900 886 l 429 886 l 429 947 l 900 947 l 900 886 m 108 319 l 108 686 l 186 686 l 186 321 q 269 122 186 190 q 542 54 353 54 q 1036 174 750 54 l 1036 686 l 1114 686 l 1114 0 l 1047 0 l 1038 113 q 518 -15 746 -15 q 108 319 108 -15 z "},"Ŭ":{"ha":1475,"x_min":103,"x_max":1372,"o":"m 894 1186 l 961 1186 q 906 1062 961 1108 q 736 1015 851 1015 q 565 1062 621 1015 q 510 1186 510 1108 l 576 1186 q 612 1099 576 1129 q 736 1069 647 1069 q 860 1099 825 1069 q 894 1186 894 1128 m 1290 488 l 1290 947 l 1372 947 l 1372 478 q 1208 110 1372 233 q 738 -14 1043 -14 q 268 110 433 -14 q 103 478 103 233 l 103 947 l 185 947 l 185 488 q 322 165 185 271 q 738 58 458 58 q 1154 165 1018 58 q 1290 488 1290 271 z "},"ŭ":{"ha":1229,"x_min":108,"x_max":1114,"o":"m 824 990 l 890 990 q 835 867 890 914 q 665 821 781 821 q 494 867 550 821 q 439 990 439 914 l 506 990 q 541 904 506 933 q 665 875 576 875 q 789 904 754 875 q 824 990 824 933 m 108 319 l 108 686 l 186 686 l 186 321 q 269 122 186 190 q 542 54 353 54 q 1036 174 750 54 l 1036 686 l 1114 686 l 1114 0 l 1047 0 l 1038 113 q 518 -15 746 -15 q 108 319 108 -15 z "},"Ů":{"ha":1475,"x_min":103,"x_max":1372,"o":"m 918 1143 q 736 1011 918 1011 q 554 1143 554 1011 q 736 1269 554 1269 q 918 1143 918 1269 m 608 1143 q 637 1080 608 1100 q 736 1060 665 1060 q 836 1080 808 1060 q 864 1143 864 1100 q 836 1202 864 1183 q 736 1221 808 1221 q 637 1201 665 1221 q 608 1143 608 1182 m 1290 488 l 1290 947 l 1372 947 l 1372 478 q 1208 110 1372 233 q 738 -14 1043 -14 q 268 110 433 -14 q 103 478 103 233 l 103 947 l 185 947 l 185 488 q 322 165 185 271 q 738 58 458 58 q 1154 165 1018 58 q 1290 488 1290 271 z "},"ů":{"ha":1229,"x_min":108,"x_max":1114,"o":"m 665 813 q 482 943 482 813 q 665 1069 482 1069 q 847 943 847 1069 q 665 813 847 813 m 538 943 q 565 881 538 900 q 665 861 593 861 q 765 881 738 861 q 792 943 792 900 q 765 1002 792 983 q 665 1021 738 1021 q 565 1002 593 1021 q 538 943 538 983 m 108 319 l 108 686 l 186 686 l 186 321 q 269 122 186 190 q 542 54 353 54 q 1036 174 750 54 l 1036 686 l 1114 686 l 1114 0 l 1047 0 l 1038 113 q 518 -15 746 -15 q 108 319 108 -15 z "},"Ű":{"ha":1475,"x_min":103,"x_max":1372,"o":"m 710 1189 l 808 1189 l 628 1019 l 554 1019 l 710 1189 m 969 1189 l 1068 1189 l 882 1019 l 808 1019 l 969 1189 m 1290 488 l 1290 947 l 1372 947 l 1372 478 q 1208 110 1372 233 q 738 -14 1043 -14 q 268 110 433 -14 q 103 478 103 233 l 103 947 l 185 947 l 185 488 q 322 165 185 271 q 738 58 458 58 q 1154 165 1018 58 q 1290 488 1290 271 z "},"ű":{"ha":1229,"x_min":108,"x_max":1114,"o":"m 647 997 l 746 997 l 567 826 l 493 826 l 647 997 m 907 997 l 1007 997 l 821 826 l 747 826 l 907 997 m 108 319 l 108 686 l 186 686 l 186 321 q 269 122 186 190 q 542 54 353 54 q 1036 174 750 54 l 1036 686 l 1114 686 l 1114 0 l 1047 0 l 1038 113 q 518 -15 746 -15 q 108 319 108 -15 z "},"Ų":{"ha":1475,"x_min":103,"x_max":1372,"o":"m 1290 488 l 1290 947 l 1372 947 l 1372 478 q 1258 155 1372 275 q 926 0 1143 35 q 740 -160 740 -87 q 801 -201 740 -201 q 946 -167 865 -201 l 965 -214 q 796 -257 883 -257 q 681 -171 681 -257 q 727 -81 681 -124 q 843 -10 774 -37 q 738 -14 792 -14 q 268 110 433 -14 q 103 478 103 233 l 103 947 l 185 947 l 185 488 q 322 165 185 271 q 738 58 458 58 q 1154 165 1018 58 q 1290 488 1290 271 z "},"ų":{"ha":1229,"x_min":108,"x_max":1153,"o":"m 108 319 l 108 686 l 186 686 l 186 321 q 269 122 186 190 q 542 54 353 54 q 1036 174 750 54 l 1036 686 l 1114 686 l 1114 0 q 928 -160 928 -87 q 989 -201 928 -201 q 1133 -167 1053 -201 l 1153 -214 q 983 -257 1071 -257 q 868 -171 868 -257 q 922 -76 868 -122 q 1051 0 976 -29 l 1047 0 l 1038 113 q 518 -15 746 -15 q 108 319 108 -15 z "},"Ŵ":{"ha":2289,"x_min":44,"x_max":2244,"o":"m 1403 1019 l 1314 1019 l 1143 1143 l 974 1019 l 885 1019 l 1103 1190 l 1183 1190 l 1403 1019 m 540 0 l 44 947 l 136 947 l 593 75 l 1092 947 l 1197 947 l 1697 75 l 2153 947 l 2244 947 l 1749 0 l 1649 0 l 1146 878 l 642 0 l 540 0 z "},"ŵ":{"ha":1740,"x_min":13,"x_max":1725,"o":"m 1128 826 l 1038 826 l 868 950 l 699 826 l 610 826 l 828 997 l 908 997 l 1128 826 m 817 686 l 917 686 l 1325 72 l 1640 686 l 1725 686 l 1367 0 l 1286 0 l 865 632 l 444 0 l 365 0 l 13 686 l 96 686 l 410 74 l 817 686 z "},"Ŷ":{"ha":1367,"x_min":6,"x_max":1360,"o":"m 942 1019 l 853 1019 l 683 1143 l 513 1019 l 424 1019 l 643 1190 l 724 1190 l 942 1019 m 642 392 l 6 947 l 118 947 l 683 458 l 1250 947 l 1360 947 l 724 392 l 724 0 l 642 0 l 642 392 z "},"ŷ":{"ha":1242,"x_min":108,"x_max":1144,"o":"m 871 826 l 782 826 l 613 950 l 442 826 l 353 826 l 572 997 l 653 997 l 871 826 m 108 361 l 108 686 l 186 686 l 186 371 q 272 174 186 235 q 547 113 358 113 q 1065 225 786 113 l 1065 686 l 1144 686 l 1144 99 q 1023 -185 1144 -106 q 611 -265 901 -265 q 156 -203 357 -265 l 174 -136 q 614 -199 403 -199 q 967 -136 867 -199 q 1067 86 1068 -74 l 1065 164 q 533 44 801 44 q 211 122 314 44 q 108 361 108 199 z "},"Ÿ":{"ha":1367,"x_min":6,"x_max":1360,"o":"m 574 1183 l 574 1019 l 501 1019 l 501 1183 l 574 1183 m 867 1183 l 867 1019 l 793 1019 l 793 1183 l 867 1183 m 642 392 l 6 947 l 118 947 l 683 458 l 1250 947 l 1360 947 l 724 392 l 724 0 l 642 0 l 642 392 z "},"Ź":{"ha":1500,"x_min":115,"x_max":1385,"o":"m 903 1190 l 1015 1190 l 796 1019 l 710 1019 l 903 1190 m 1385 72 l 1385 0 l 115 0 l 115 71 l 1071 725 q 1185 789 1108 747 q 1281 842 1261 831 l 1063 838 l 142 838 l 142 911 l 1385 911 l 1385 840 l 451 196 q 224 69 429 182 l 449 72 l 1385 72 z "},"ź":{"ha":1168,"x_min":78,"x_max":1090,"o":"m 740 997 l 853 997 l 631 826 l 544 826 l 740 997 m 1090 63 l 1090 0 l 78 0 l 78 63 l 642 425 q 988 624 767 503 l 92 624 l 92 686 l 1090 686 l 1090 624 l 553 276 q 185 63 500 243 l 1090 63 z "},"Ż":{"ha":1500,"x_min":115,"x_max":1385,"o":"m 790 1215 l 790 1051 l 711 1051 l 711 1215 l 790 1215 m 1385 72 l 1385 0 l 115 0 l 115 71 l 1071 725 q 1185 789 1108 747 q 1281 842 1261 831 l 1063 838 l 142 838 l 142 911 l 1385 911 l 1385 840 l 451 196 q 224 69 429 182 l 449 72 l 1385 72 z "},"ż":{"ha":1168,"x_min":78,"x_max":1090,"o":"m 624 960 l 624 796 l 546 796 l 546 960 l 624 960 m 1090 63 l 1090 0 l 78 0 l 78 63 l 642 425 q 988 624 767 503 l 92 624 l 92 686 l 1090 686 l 1090 624 l 553 276 q 185 63 500 243 l 1090 63 z "},"Ž":{"ha":1500,"x_min":115,"x_max":1385,"o":"m 1010 1190 l 792 1019 l 711 1019 l 492 1190 l 582 1190 l 751 1065 l 921 1190 l 1010 1190 m 1385 72 l 1385 0 l 115 0 l 115 71 l 1071 725 q 1185 789 1108 747 q 1281 842 1261 831 l 1063 838 l 142 838 l 142 911 l 1385 911 l 1385 840 l 451 196 q 224 69 429 182 l 449 72 l 1385 72 z "},"ž":{"ha":1168,"x_min":78,"x_max":1090,"o":"m 844 997 l 626 826 l 546 826 l 326 997 l 415 997 l 586 872 l 756 997 l 844 997 m 1090 63 l 1090 0 l 78 0 l 78 63 l 642 425 q 988 624 767 503 l 92 624 l 92 686 l 1090 686 l 1090 624 l 553 276 q 185 63 500 243 l 1090 63 z "},"ƒ":{"ha":1218,"x_min":-150,"x_max":1385,"o":"m 521 68 l 588 449 l 203 449 l 214 515 l 599 515 l 636 731 q 774 979 667 901 q 1093 1057 882 1057 q 1385 1029 1239 1057 l 1365 964 q 1088 990 1238 990 q 825 928 911 990 q 715 725 739 865 l 678 515 l 1139 515 l 1126 449 l 667 449 l 599 63 q 456 -183 569 -101 q 131 -264 343 -264 q -150 -236 6 -264 l -131 -172 q 138 -197 -3 -197 q 406 -131 315 -197 q 521 68 497 -64 z "},"Ǽ":{"ha":2414,"x_min":8,"x_max":2311,"o":"m 1401 1190 l 1514 1190 l 1296 1019 l 1210 1019 l 1401 1190 m 124 0 l 8 0 l 1128 947 l 2311 947 l 2311 878 l 1249 878 l 1249 517 l 2283 517 l 2283 454 l 1249 454 l 1249 69 l 2311 69 l 2311 0 l 1167 0 l 1167 242 l 410 242 l 124 0 m 1167 878 l 486 307 l 1167 307 l 1167 878 z "},"ǽ":{"ha":2171,"x_min":114,"x_max":2082,"o":"m 1238 985 l 1350 985 l 1128 814 l 1042 814 l 1238 985 m 1592 53 q 2033 104 1832 53 l 2051 39 q 1589 -15 1835 -15 q 1241 30 1371 -15 q 1063 182 1111 75 q 765 41 933 97 q 424 -15 597 -15 q 190 31 267 -15 q 114 179 114 76 q 194 326 114 281 q 460 371 274 371 l 1031 371 q 1010 486 1028 440 q 948 567 993 532 q 820 617 903 601 q 610 632 738 632 q 179 569 408 632 l 163 639 q 614 701 379 701 q 926 659 818 701 q 1075 525 1035 617 q 1561 701 1182 701 q 1770 685 1679 701 q 1933 631 1861 668 q 2044 528 2006 594 q 2082 368 2082 461 q 2078 317 2082 336 l 1108 317 q 1234 109 1118 165 q 1592 53 1350 53 m 1558 639 q 1228 578 1339 639 q 1108 372 1118 517 l 2006 372 q 1899 575 1999 511 q 1558 639 1799 639 m 431 49 q 767 102 606 49 q 1043 235 928 156 q 1032 315 1033 276 l 475 315 q 256 289 322 315 q 190 183 190 263 q 246 78 190 107 q 431 49 301 49 z "},"Ș":{"ha":1385,"x_min":90,"x_max":1294,"o":"m 1294 238 q 1245 90 1294 143 q 1072 12 1196 38 q 724 -14 947 -14 q 399 3 575 -14 q 104 46 224 21 l 117 117 q 422 74 242 92 q 736 56 601 56 q 1040 75 936 56 q 1180 132 1144 94 q 1215 239 1215 169 q 1163 370 1215 336 q 978 421 1110 404 l 425 481 q 172 546 253 499 q 90 713 90 593 q 211 906 90 850 q 644 961 332 961 q 960 944 786 961 q 1254 901 1135 926 l 1242 833 q 943 874 1122 857 q 633 892 764 892 q 341 873 442 892 q 205 818 240 854 q 169 714 169 782 q 228 597 169 629 q 422 550 286 565 l 954 493 q 1068 478 1024 486 q 1160 452 1113 469 q 1233 409 1207 435 q 1277 340 1260 383 q 1294 238 1294 297 m 667 -100 l 763 -100 l 625 -271 l 551 -271 l 667 -100 z "},"ș":{"ha":1114,"x_min":89,"x_max":1028,"o":"m 1028 169 q 935 24 1028 64 q 593 -15 842 -15 q 104 28 349 -15 l 117 88 q 575 47 363 47 q 875 71 799 47 q 951 171 951 94 q 888 270 951 244 q 657 308 825 296 l 363 328 q 156 376 222 339 q 89 513 89 413 q 199 663 89 624 q 560 701 308 701 q 971 669 760 701 l 958 610 q 549 640 735 640 q 247 615 331 640 q 164 514 164 589 q 178 454 164 478 q 224 418 192 431 q 285 401 256 406 q 369 392 315 396 l 689 369 q 949 314 871 356 q 1028 169 1028 272 m 504 -86 l 601 -86 l 463 -257 l 389 -257 l 504 -86 z "},"Ț":{"ha":1364,"x_min":63,"x_max":1301,"o":"m 642 875 l 63 875 l 63 947 l 1301 947 l 1301 875 l 724 875 l 724 0 l 642 0 l 642 875 m 654 -86 l 750 -86 l 613 -257 l 539 -257 l 654 -86 z "},"ț":{"ha":983,"x_min":25,"x_max":935,"o":"m 210 353 l 210 618 l 25 618 l 25 686 l 211 686 l 225 860 l 289 860 l 289 686 l 901 686 l 901 618 l 289 618 l 289 354 q 356 120 289 186 q 603 54 422 54 q 918 96 743 54 l 935 29 q 599 -15 757 -15 q 297 67 383 -15 q 210 353 210 150 m 510 -86 l 606 -86 l 468 -257 l 394 -257 l 510 -86 z "},"ȷ":{"ha":313,"x_min":-18,"x_max":196,"o":"m 72 -250 l -18 -250 q 81 -91 46 -169 q 117 97 117 -12 l 117 686 l 196 686 l 196 96 q 176 -56 196 14 q 133 -164 156 -126 q 72 -250 110 -201 z "},"ˆ":{"ha":694,"x_min":88,"x_max":606,"o":"m 606 825 l 517 825 l 347 949 l 176 825 l 88 825 l 307 996 l 386 996 l 606 825 z "},"ˇ":{"ha":694,"x_min":88,"x_max":606,"o":"m 606 996 l 386 825 l 307 825 l 88 996 l 176 996 l 347 871 l 517 996 l 606 996 z "},"˘":{"ha":657,"x_min":103,"x_max":554,"o":"m 488 989 l 554 989 q 499 866 554 913 q 329 819 444 819 q 158 866 214 819 q 103 989 103 913 l 169 989 q 205 903 169 932 q 329 874 240 874 q 453 903 418 874 q 488 989 488 932 z "},"˙":{"ha":381,"x_min":151,"x_max":231,"o":"m 231 958 l 231 793 l 151 793 l 151 958 l 231 958 z "},"˚":{"ha":569,"x_min":103,"x_max":467,"o":"m 286 810 q 103 940 103 810 q 286 1067 103 1067 q 467 940 467 1067 q 286 810 467 810 m 157 940 q 185 878 157 899 q 286 858 214 858 q 385 878 357 858 q 413 940 413 899 q 385 999 413 981 q 286 1018 357 1018 q 185 999 214 1018 q 157 940 157 981 z "},"˛":{"ha":490,"x_min":103,"x_max":388,"o":"m 301 6 l 349 0 q 163 -160 163 -87 q 224 -201 163 -201 q 368 -167 288 -201 l 388 -214 q 218 -257 306 -257 q 103 -171 103 -257 q 163 -70 103 -119 q 301 6 222 -21 z "},"˜":{"ha":694,"x_min":108,"x_max":586,"o":"m 108 833 l 108 890 q 231 936 164 936 q 366 915 283 936 q 481 894 449 894 q 586 931 526 894 l 586 874 q 483 836 539 836 q 361 858 447 836 q 232 881 275 881 q 108 833 172 881 z "},"˝":{"ha":719,"x_min":103,"x_max":617,"o":"m 257 996 l 357 996 l 176 825 l 103 825 l 257 996 m 517 996 l 617 996 l 431 825 l 357 825 l 517 996 z "},"̦":{"ha":371,"x_min":82,"x_max":293,"o":"m 197 -86 l 293 -86 l 156 -257 l 82 -257 l 197 -86 z "},"π":{"ha":1625,"x_min":125,"x_max":1497,"o":"m 407 0 l 329 0 l 329 618 l 125 618 l 125 686 l 1456 686 l 1456 618 l 1251 618 l 1251 213 q 1287 92 1251 131 q 1411 54 1322 54 q 1489 61 1444 54 l 1497 -4 q 1406 -14 1453 -14 q 1228 40 1283 -14 q 1174 210 1174 94 l 1174 618 l 407 618 l 407 0 z "},"Ẁ":{"ha":2289,"x_min":44,"x_max":2244,"o":"m 1132 1019 l 913 1190 l 1025 1190 l 1218 1019 l 1132 1019 m 540 0 l 44 947 l 136 947 l 593 75 l 1092 947 l 1197 947 l 1697 75 l 2153 947 l 2244 947 l 1749 0 l 1649 0 l 1146 878 l 642 0 l 540 0 z "},"ẁ":{"ha":1740,"x_min":13,"x_max":1725,"o":"m 819 826 l 599 997 l 711 997 l 906 826 l 819 826 m 817 686 l 917 686 l 1325 72 l 1640 686 l 1725 686 l 1367 0 l 1286 0 l 865 632 l 444 0 l 365 0 l 13 686 l 96 686 l 410 74 l 817 686 z "},"Ẃ":{"ha":2289,"x_min":44,"x_max":2244,"o":"m 1296 1190 l 1408 1190 l 1190 1019 l 1104 1019 l 1296 1190 m 540 0 l 44 947 l 136 947 l 593 75 l 1092 947 l 1197 947 l 1697 75 l 2153 947 l 2244 947 l 1749 0 l 1649 0 l 1146 878 l 642 0 l 540 0 z "},"ẃ":{"ha":1740,"x_min":13,"x_max":1725,"o":"m 1022 997 l 1135 997 l 914 826 l 828 826 l 1022 997 m 817 686 l 917 686 l 1325 72 l 1640 686 l 1725 686 l 1367 0 l 1286 0 l 865 632 l 444 0 l 365 0 l 13 686 l 96 686 l 410 74 l 817 686 z "},"Ẅ":{"ha":2289,"x_min":44,"x_max":2244,"o":"m 1035 1183 l 1035 1019 l 961 1019 l 961 1183 l 1035 1183 m 1326 1183 l 1326 1019 l 1253 1019 l 1253 1183 l 1326 1183 m 540 0 l 44 947 l 136 947 l 593 75 l 1092 947 l 1197 947 l 1697 75 l 2153 947 l 2244 947 l 1749 0 l 1649 0 l 1146 878 l 642 0 l 540 0 z "},"ẅ":{"ha":1740,"x_min":13,"x_max":1725,"o":"m 758 989 l 758 825 l 685 825 l 685 989 l 758 989 m 1050 989 l 1050 825 l 978 825 l 978 989 l 1050 989 m 817 686 l 917 686 l 1325 72 l 1640 686 l 1725 686 l 1367 0 l 1286 0 l 865 632 l 444 0 l 365 0 l 13 686 l 96 686 l 410 74 l 817 686 z "},"Ẽ":{"ha":1417,"x_min":117,"x_max":1315,"o":"m 532 1028 l 532 1085 q 654 1131 588 1131 q 790 1110 707 1131 q 904 1089 872 1089 q 1008 1125 949 1089 l 1008 1068 q 907 1031 961 1031 q 784 1053 871 1031 q 656 1075 697 1075 q 532 1028 593 1075 m 1315 0 l 117 0 l 117 947 l 1315 947 l 1315 878 l 199 878 l 199 517 l 1288 517 l 1288 454 l 199 454 l 199 69 l 1315 69 l 1315 0 z "},"ẽ":{"ha":1231,"x_min":89,"x_max":1142,"o":"m 382 824 l 382 881 q 504 925 439 925 q 640 904 557 925 q 754 883 722 883 q 860 921 803 883 l 860 863 q 757 826 811 826 q 635 849 721 826 q 506 871 549 871 q 382 824 449 871 m 651 53 q 1093 104 888 53 l 1110 39 q 647 -15 893 -15 q 226 65 363 -15 q 89 344 89 146 q 226 618 89 535 q 619 701 363 701 q 1003 625 865 701 q 1142 368 1142 549 q 1136 317 1142 342 l 167 317 q 293 109 176 165 q 651 53 410 53 m 617 639 q 287 578 397 639 q 167 372 176 517 l 1065 372 q 958 575 1058 511 q 617 639 858 639 z "},"Ỳ":{"ha":1367,"x_min":6,"x_max":1360,"o":"m 671 1019 l 451 1190 l 564 1190 l 757 1019 l 671 1019 m 642 392 l 6 947 l 118 947 l 683 458 l 1250 947 l 1360 947 l 724 392 l 724 0 l 642 0 l 642 392 z "},"ỳ":{"ha":1242,"x_min":108,"x_max":1144,"o":"m 564 826 l 343 997 l 454 997 l 650 826 l 564 826 m 108 361 l 108 686 l 186 686 l 186 371 q 272 174 186 235 q 547 113 358 113 q 1065 225 786 113 l 1065 686 l 1144 686 l 1144 99 q 1023 -185 1144 -106 q 611 -265 901 -265 q 156 -203 357 -265 l 174 -136 q 614 -199 403 -199 q 967 -136 867 -199 q 1067 86 1068 -74 l 1065 164 q 533 44 801 44 q 211 122 314 44 q 108 361 108 199 z "},"Ỹ":{"ha":1367,"x_min":6,"x_max":1360,"o":"m 447 1028 l 447 1085 q 569 1131 503 1131 q 705 1110 622 1131 q 819 1089 788 1089 q 924 1125 864 1089 l 924 1068 q 822 1031 876 1031 q 700 1053 786 1031 q 571 1075 614 1075 q 447 1028 511 1075 m 642 392 l 6 947 l 118 947 l 683 458 l 1250 947 l 1360 947 l 724 392 l 724 0 l 642 0 l 642 392 z "},"ỹ":{"ha":1261,"x_min":108,"x_max":1144,"o":"m 374 824 l 374 881 q 496 925 431 925 q 631 904 549 925 q 746 883 714 883 q 851 921 792 883 l 851 863 q 749 826 803 826 q 626 849 713 826 q 497 871 540 871 q 374 824 440 871 m 108 361 l 108 686 l 186 686 l 186 371 q 272 174 186 235 q 547 113 358 113 q 1065 225 786 113 l 1065 686 l 1144 686 l 1144 99 q 1023 -185 1144 -106 q 611 -265 901 -265 q 156 -203 357 -265 l 174 -136 q 614 -199 403 -199 q 967 -136 867 -199 q 1067 86 1068 -74 l 1065 164 q 533 44 801 44 q 211 122 314 44 q 108 361 108 199 z "},"–":{"ha":851,"x_min":78,"x_max":772,"o":"m 772 325 l 78 325 l 78 392 l 772 392 l 772 325 z "},"—":{"ha":1546,"x_min":78,"x_max":1467,"o":"m 1467 325 l 78 325 l 78 392 l 1467 392 l 1467 325 z "},"‘":{"ha":299,"x_min":115,"x_max":211,"o":"m 211 1050 l 204 1007 q 181 1011 192 1011 q 161 993 161 1011 l 161 956 l 196 956 l 196 764 l 115 764 l 115 1000 q 176 1057 115 1057 q 211 1050 197 1057 z "},"’":{"ha":299,"x_min":88,"x_max":185,"o":"m 88 756 l 96 797 q 118 794 110 794 q 138 813 138 794 l 138 850 l 104 850 l 104 1042 l 185 1042 l 185 806 q 122 749 185 749 q 88 756 104 749 z "},"‚":{"ha":299,"x_min":88,"x_max":185,"o":"m 88 -94 l 96 -51 q 118 -56 106 -56 q 138 -37 138 -56 l 138 0 l 104 0 l 104 192 l 185 192 l 185 -44 q 122 -101 185 -101 q 88 -94 104 -101 z "},"“":{"ha":510,"x_min":115,"x_max":422,"o":"m 211 1050 l 204 1007 q 181 1011 192 1011 q 161 993 161 1011 l 161 956 l 196 956 l 196 764 l 115 764 l 115 1000 q 176 1057 115 1057 q 211 1050 197 1057 m 422 1050 l 415 1007 q 392 1011 403 1011 q 372 993 372 1011 l 372 956 l 406 956 l 406 764 l 326 764 l 326 1000 q 388 1057 326 1057 q 422 1050 406 1057 z "},"”":{"ha":510,"x_min":88,"x_max":394,"o":"m 88 756 l 96 797 q 118 794 110 794 q 138 813 138 794 l 138 850 l 104 850 l 104 1042 l 185 1042 l 185 806 q 122 749 185 749 q 88 756 104 749 m 299 756 l 306 797 q 329 794 322 794 q 349 813 349 794 l 349 850 l 315 850 l 315 1042 l 394 1042 l 394 806 q 333 749 394 749 q 299 756 315 749 z "},"„":{"ha":510,"x_min":88,"x_max":394,"o":"m 88 -94 l 96 -51 q 118 -56 106 -56 q 138 -37 138 -56 l 138 0 l 104 0 l 104 192 l 185 192 l 185 -44 q 122 -101 185 -101 q 88 -94 104 -101 m 299 -94 l 306 -51 q 329 -56 318 -56 q 349 -37 349 -56 l 349 0 l 315 0 l 315 192 l 394 192 l 394 -44 q 333 -101 394 -101 q 299 -94 315 -101 z "},"†":{"ha":1175,"x_min":100,"x_max":1075,"o":"m 547 615 l 100 615 l 100 686 l 547 686 l 547 947 l 629 947 l 629 686 l 1075 686 l 1075 615 l 629 615 l 629 -189 l 547 -189 l 547 615 z "},"‡":{"ha":1175,"x_min":100,"x_max":1075,"o":"m 547 72 l 100 72 l 100 143 l 547 143 l 547 615 l 100 615 l 100 686 l 547 686 l 547 947 l 629 947 l 629 686 l 1075 686 l 1075 615 l 629 615 l 629 143 l 1075 143 l 1075 72 l 629 72 l 629 -189 l 547 -189 l 547 72 z "},"•":{"ha":608,"x_min":147,"x_max":461,"o":"m 306 314 q 183 341 219 314 q 147 435 147 368 q 183 524 147 497 q 306 550 219 550 q 426 524 390 550 q 461 435 461 497 q 426 341 461 368 q 306 314 390 314 z "},"…":{"ha":903,"x_min":103,"x_max":800,"o":"m 183 192 l 183 0 l 103 0 l 103 192 l 183 192 m 492 192 l 492 0 l 411 0 l 411 192 l 492 192 m 800 192 l 800 0 l 719 0 l 719 192 l 800 192 z "},"‰":{"ha":2488,"x_min":78,"x_max":2386,"o":"m 397 515 q 238 515 397 515 q 78 739 78 515 q 397 963 78 963 q 717 739 717 963 q 397 515 717 515 m 421 0 l 332 0 l 1333 947 l 1421 947 l 421 0 m 594 611 q 625 631 594 611 q 656 739 656 651 q 594 866 656 826 q 397 906 533 906 q 201 866 263 906 q 140 739 140 826 q 201 611 140 651 q 397 571 263 571 q 594 611 533 571 m 1747 210 q 2067 435 1747 435 q 2386 210 2386 435 q 2067 -14 2386 -14 q 1747 210 1747 -14 m 1351 -14 q 1192 -14 1351 -14 q 1032 210 1032 -14 q 1351 433 1032 433 q 1671 210 1671 433 q 1351 -14 1671 -14 m 1549 82 q 1579 102 1549 82 q 1610 210 1610 122 q 1549 338 1610 297 q 1351 378 1488 378 q 1156 338 1217 378 q 1094 210 1094 297 q 1156 82 1094 122 q 1351 42 1217 42 q 1549 82 1488 42 m 2264 83 q 2294 102 2264 83 q 2325 210 2325 122 q 2264 338 2325 297 q 2067 378 2203 378 q 1871 338 1932 378 q 1810 210 1810 297 q 1871 83 1810 122 q 2067 43 1932 43 q 2264 83 2203 43 z "},"‹":{"ha":703,"x_min":101,"x_max":601,"o":"m 601 72 l 101 321 l 101 399 l 601 647 l 601 576 l 165 360 l 601 143 l 601 72 z "},"›":{"ha":703,"x_min":101,"x_max":601,"o":"m 101 647 l 601 399 l 601 321 l 101 72 l 101 143 l 536 360 l 101 576 l 101 647 z "},"⁄":{"ha":200,"x_min":-444,"x_max":644,"o":"m -356 0 l -444 0 l 557 947 l 644 947 l -356 0 z "},"⁰":{"ha":796,"x_min":78,"x_max":717,"o":"m 397 515 q 238 515 397 515 q 78 739 78 515 q 397 963 78 963 q 717 739 717 963 q 397 515 717 515 m 594 611 q 625 631 594 611 q 656 739 656 651 q 594 866 656 826 q 397 906 533 906 q 201 866 263 906 q 140 739 140 826 q 201 611 140 651 q 397 571 263 571 q 594 611 533 571 z "},"⁴":{"ha":806,"x_min":78,"x_max":729,"o":"m 604 521 l 544 521 l 544 611 l 78 611 l 78 660 l 544 942 l 604 942 l 604 663 l 729 663 l 729 611 l 604 611 l 604 521 m 160 658 l 160 654 q 301 663 293 663 l 544 663 l 544 882 l 289 726 q 160 658 213 685 z "},"€":{"ha":1581,"x_min":13,"x_max":1492,"o":"m 201 474 q 204 540 201 499 l 13 540 l 13 597 l 213 597 q 403 873 247 785 q 846 961 558 961 q 1492 878 1164 961 l 1475 810 q 846 890 1125 890 q 458 819 589 890 q 296 597 328 747 l 996 597 l 996 540 l 286 540 q 283 474 283 499 q 288 400 283 436 l 996 400 l 996 342 l 297 342 q 461 126 331 196 q 846 56 592 56 q 1475 136 1111 56 l 1492 68 q 846 -14 1169 -14 q 406 72 561 -14 q 214 342 251 158 l 13 342 l 13 400 l 206 400 q 201 474 201 436 z "},"ℓ":{"ha":911,"x_min":110,"x_max":743,"o":"m 547 544 l 188 392 l 188 253 q 233 99 188 144 q 394 54 279 54 q 594 85 492 54 l 611 15 q 394 -18 508 -18 q 174 47 239 -18 q 110 251 110 113 l 110 604 q 213 864 110 774 q 496 954 317 954 q 681 901 618 954 q 743 761 743 847 q 693 634 743 683 q 547 544 643 585 m 188 610 l 188 449 l 508 585 q 630 656 590 619 q 669 747 669 692 q 493 883 669 883 q 270 815 353 883 q 188 610 188 746 z "},"™":{"ha":2874,"x_min":79,"x_max":2700,"o":"m 1457 442 l 1375 442 l 1375 947 l 1478 947 l 2038 499 l 2597 947 l 2700 947 l 2700 442 l 2617 442 l 2617 874 l 2079 442 l 1994 442 l 1457 874 l 1457 442 m 572 878 l 79 878 l 79 947 l 1149 947 l 1149 878 l 656 878 l 656 442 l 572 442 l 572 878 z "},"∂":{"ha":1407,"x_min":126,"x_max":1256,"o":"m 1179 476 q 1056 786 1179 672 q 665 900 932 900 q 297 846 497 900 l 281 915 q 668 972 471 972 q 905 944 801 972 q 1074 870 1008 917 q 1181 758 1139 824 q 1239 623 1222 692 q 1256 475 1256 554 q 1097 119 1256 251 q 635 -14 938 -14 q 126 325 126 -14 q 596 642 126 642 q 922 590 769 642 q 1179 467 1074 539 l 1179 476 m 206 328 q 313 121 206 188 q 635 54 419 54 q 1017 149 879 54 q 1175 414 1154 243 q 918 533 1078 483 q 600 583 758 583 q 307 524 408 583 q 206 328 206 464 z "},"∏":{"ha":1694,"x_min":100,"x_max":1596,"o":"m 382 0 l 300 0 l 300 838 l 100 838 l 100 911 l 1596 911 l 1596 838 l 1393 838 l 1393 0 l 1311 0 l 1311 838 l 382 838 l 382 0 z "},"∑":{"ha":1464,"x_min":103,"x_max":1361,"o":"m 1361 -210 l 1361 -279 l 103 -279 l 103 -193 l 1050 338 l 103 857 l 103 947 l 1361 947 l 1361 878 l 204 878 l 1111 375 l 1111 303 l 204 -210 l 1361 -210 z "},"−":{"ha":1032,"x_min":106,"x_max":926,"o":"m 926 393 l 106 393 l 106 460 l 926 460 l 926 393 z "},"∕":{"ha":1031,"x_min":-29,"x_max":1060,"o":"m 60 0 l -29 0 l 972 947 l 1060 947 l 60 0 z "},"√":{"ha":1126,"x_min":53,"x_max":1075,"o":"m 1075 935 l 544 0 l 488 0 l 289 329 l 53 329 l 53 397 l 326 397 l 514 88 l 994 935 l 1075 935 z "},"∞":{"ha":1382,"x_min":101,"x_max":1281,"o":"m 346 197 q 170 258 239 197 q 101 431 101 319 q 170 605 101 543 q 347 667 239 667 q 455 651 406 667 q 548 601 504 636 q 618 540 592 567 q 689 464 644 514 q 765 540 739 515 q 838 601 792 565 q 933 651 885 636 q 1035 667 981 667 q 1212 606 1143 667 q 1281 432 1281 544 q 1213 258 1281 319 q 1036 197 1144 197 q 845 244 924 197 q 688 376 767 290 q 528 244 606 292 q 346 197 450 197 m 1031 604 q 913 574 971 604 q 822 513 856 544 q 729 419 788 481 q 869 301 801 342 q 1032 260 936 260 q 1165 303 1115 260 q 1214 432 1214 346 q 1164 562 1214 519 q 1031 604 1114 604 m 349 260 q 505 301 436 260 q 649 421 574 343 q 563 513 596 482 q 473 574 531 544 q 351 603 415 603 q 218 560 268 603 q 168 431 168 518 q 217 302 168 344 q 349 260 267 260 z "},"∫":{"ha":1181,"x_min":-61,"x_max":1242,"o":"m 968 990 q 708 924 786 990 q 631 725 631 858 l 631 -32 q 211 -361 631 -361 q -61 -333 92 -361 l -47 -269 q 214 -294 83 -294 q 474 -228 396 -294 q 551 -29 551 -162 l 551 728 q 654 972 551 886 q 969 1057 757 1057 q 1242 1029 1089 1057 l 1228 965 q 968 990 1100 990 z "},"≈":{"ha":1053,"x_min":106,"x_max":947,"o":"m 324 593 q 124 532 219 593 l 106 593 q 329 661 208 661 q 524 626 403 661 q 731 590 644 590 q 931 654 831 590 l 947 594 q 726 525 844 525 q 517 559 639 525 q 324 593 394 593 m 324 357 q 124 292 222 357 l 106 354 q 329 422 213 422 q 526 388 403 422 q 733 354 649 354 q 931 417 831 354 l 947 356 q 728 286 847 286 q 519 322 642 286 q 324 357 396 357 z "},"≠":{"ha":1031,"x_min":103,"x_max":928,"o":"m 928 253 l 432 253 l 343 131 l 278 131 l 367 253 l 103 253 l 103 319 l 415 319 l 549 503 l 103 503 l 103 569 l 597 569 l 688 693 l 751 693 l 661 569 l 928 569 l 928 503 l 614 503 l 481 319 l 928 319 l 928 253 z "},"≤":{"ha":1026,"x_min":103,"x_max":924,"o":"m 924 163 l 103 397 l 103 481 l 924 714 l 924 644 l 185 439 l 924 233 l 924 163 m 924 28 l 103 28 l 103 94 l 924 94 l 924 28 z "},"≥":{"ha":1026,"x_min":103,"x_max":924,"o":"m 924 481 l 924 397 l 103 163 l 103 233 l 840 439 l 103 644 l 103 714 l 924 481 m 924 94 l 924 28 l 103 28 l 103 94 l 924 94 z "},"◊":{"ha":1046,"x_min":64,"x_max":982,"o":"m 982 483 l 982 422 l 557 0 l 490 0 l 64 422 l 64 483 l 490 906 l 557 906 l 982 483 m 524 842 l 135 453 l 524 64 l 911 453 l 524 842 z "},"":{"ha":299,"x_min":104,"x_max":193,"o":"m 150 754 l 150 786 l 119 786 l 119 947 l 193 947 l 193 749 q 136 696 193 696 q 104 703 118 696 l 111 742 q 132 739 125 739 q 150 754 150 739 z "},"ﬁ":{"ha":1147,"x_min":38,"x_max":1031,"o":"m 189 0 l 189 618 l 38 618 l 38 686 l 189 686 l 189 728 q 607 1057 189 1057 q 961 1017 763 1057 l 944 951 q 604 990 756 990 q 345 925 424 990 q 267 729 267 860 l 267 686 l 1031 686 l 1031 0 l 953 0 l 953 618 l 267 618 l 267 0 l 189 0 z "},"ﬂ":{"ha":1150,"x_min":38,"x_max":1033,"o":"m 189 0 l 189 618 l 38 618 l 38 686 l 189 686 l 189 728 q 615 1057 189 1057 q 965 1042 808 1057 l 1033 1042 l 1033 0 l 954 0 l 954 975 q 617 990 776 990 q 348 925 429 990 q 267 729 267 860 l 267 686 l 775 686 l 775 618 l 267 618 l 267 0 l 189 0 z "}}}
